G04 #@! TF.GenerationSoftware,KiCad,Pcbnew,(5.0.1-3-g963ef8bb5)*
G04 #@! TF.CreationDate,2018-11-16T01:15:12-08:00*
G04 #@! TF.ProjectId,eurorack-psu,6575726F7261636B2D7073752E6B6963,rev?*
G04 #@! TF.SameCoordinates,Original*
G04 #@! TF.FileFunction,Copper,L2,Bot,Signal*
G04 #@! TF.FilePolarity,Positive*
%FSLAX46Y46*%
G04 Gerber Fmt 4.6, Leading zero omitted, Abs format (unit mm)*
G04 Created by KiCad (PCBNEW (5.0.1-3-g963ef8bb5)) date Friday, November 16, 2018 at 01:15:12 AM*
%MOMM*%
%LPD*%
G01*
G04 APERTURE LIST*
G04 #@! TA.AperFunction,NonConductor*
%ADD10C,0.300000*%
G04 #@! TD*
G04 #@! TA.AperFunction,EtchedComponent*
%ADD11C,0.010000*%
G04 #@! TD*
G04 #@! TA.AperFunction,ComponentPad*
%ADD12C,1.800000*%
G04 #@! TD*
G04 #@! TA.AperFunction,ComponentPad*
%ADD13R,2.400000X2.400000*%
G04 #@! TD*
G04 #@! TA.AperFunction,ComponentPad*
%ADD14C,2.400000*%
G04 #@! TD*
G04 #@! TA.AperFunction,ComponentPad*
%ADD15R,1.600000X1.600000*%
G04 #@! TD*
G04 #@! TA.AperFunction,ComponentPad*
%ADD16O,1.600000X1.600000*%
G04 #@! TD*
G04 #@! TA.AperFunction,ComponentPad*
%ADD17O,2.540000X2.032000*%
G04 #@! TD*
G04 #@! TA.AperFunction,ComponentPad*
%ADD18C,1.600000*%
G04 #@! TD*
G04 #@! TA.AperFunction,ComponentPad*
%ADD19O,2.400000X2.400000*%
G04 #@! TD*
G04 #@! TA.AperFunction,ComponentPad*
%ADD20R,1.800000X1.800000*%
G04 #@! TD*
G04 #@! TA.AperFunction,ComponentPad*
%ADD21C,1.440000*%
G04 #@! TD*
G04 #@! TA.AperFunction,ComponentPad*
%ADD22O,1.700000X1.700000*%
G04 #@! TD*
G04 #@! TA.AperFunction,ComponentPad*
%ADD23R,1.700000X1.700000*%
G04 #@! TD*
G04 #@! TA.AperFunction,ViaPad*
%ADD24C,1.524000*%
G04 #@! TD*
G04 #@! TA.AperFunction,Conductor*
%ADD25C,0.250000*%
G04 #@! TD*
G04 #@! TA.AperFunction,Conductor*
%ADD26C,1.524000*%
G04 #@! TD*
G04 #@! TA.AperFunction,Conductor*
%ADD27C,2.032000*%
G04 #@! TD*
G04 #@! TA.AperFunction,Conductor*
%ADD28C,0.508000*%
G04 #@! TD*
G04 #@! TA.AperFunction,Conductor*
%ADD29C,0.254000*%
G04 #@! TD*
G04 APERTURE END LIST*
D10*
X138394285Y-110248571D02*
X138394285Y-109248571D01*
X138394285Y-109534285D02*
X138322857Y-109391428D01*
X138251428Y-109320000D01*
X138108571Y-109248571D01*
X137965714Y-109248571D01*
X137465714Y-109248571D02*
X137465714Y-110748571D01*
X137465714Y-109320000D02*
X137322857Y-109248571D01*
X137037142Y-109248571D01*
X136894285Y-109320000D01*
X136822857Y-109391428D01*
X136751428Y-109534285D01*
X136751428Y-109962857D01*
X136822857Y-110105714D01*
X136894285Y-110177142D01*
X137037142Y-110248571D01*
X137322857Y-110248571D01*
X137465714Y-110177142D01*
X136108571Y-110248571D02*
X136108571Y-108748571D01*
X136108571Y-109320000D02*
X135965714Y-109248571D01*
X135680000Y-109248571D01*
X135537142Y-109320000D01*
X135465714Y-109391428D01*
X135394285Y-109534285D01*
X135394285Y-109962857D01*
X135465714Y-110105714D01*
X135537142Y-110177142D01*
X135680000Y-110248571D01*
X135965714Y-110248571D01*
X136108571Y-110177142D01*
X138587857Y-73718571D02*
X138587857Y-75218571D01*
X137873571Y-74504285D02*
X137802142Y-74647142D01*
X137659285Y-74718571D01*
X138587857Y-74504285D02*
X138516428Y-74647142D01*
X138373571Y-74718571D01*
X138087857Y-74718571D01*
X137945000Y-74647142D01*
X137873571Y-74504285D01*
X137873571Y-73718571D01*
X137016428Y-74718571D02*
X137016428Y-73718571D01*
X137016428Y-74004285D02*
X136945000Y-73861428D01*
X136873571Y-73790000D01*
X136730714Y-73718571D01*
X136587857Y-73718571D01*
X135873571Y-74718571D02*
X136016428Y-74647142D01*
X136087857Y-74575714D01*
X136159285Y-74432857D01*
X136159285Y-74004285D01*
X136087857Y-73861428D01*
X136016428Y-73790000D01*
X135873571Y-73718571D01*
X135659285Y-73718571D01*
X135516428Y-73790000D01*
X135445000Y-73861428D01*
X135373571Y-74004285D01*
X135373571Y-74432857D01*
X135445000Y-74575714D01*
X135516428Y-74647142D01*
X135659285Y-74718571D01*
X135873571Y-74718571D01*
X138587857Y-76268571D02*
X138587857Y-77768571D01*
X138587857Y-76340000D02*
X138445000Y-76268571D01*
X138159285Y-76268571D01*
X138016428Y-76340000D01*
X137945000Y-76411428D01*
X137873571Y-76554285D01*
X137873571Y-76982857D01*
X137945000Y-77125714D01*
X138016428Y-77197142D01*
X138159285Y-77268571D01*
X138445000Y-77268571D01*
X138587857Y-77197142D01*
X137373571Y-76268571D02*
X137087857Y-77268571D01*
X136802142Y-76554285D01*
X136516428Y-77268571D01*
X136230714Y-76268571D01*
X135659285Y-77268571D02*
X135659285Y-76268571D01*
X135659285Y-76554285D02*
X135587857Y-76411428D01*
X135516428Y-76340000D01*
X135373571Y-76268571D01*
X135230714Y-76268571D01*
X138587857Y-79818571D02*
X138587857Y-78818571D01*
X138587857Y-79104285D02*
X138516428Y-78961428D01*
X138445000Y-78890000D01*
X138302142Y-78818571D01*
X138159285Y-78818571D01*
X137087857Y-79747142D02*
X137230714Y-79818571D01*
X137516428Y-79818571D01*
X137659285Y-79747142D01*
X137730714Y-79604285D01*
X137730714Y-79032857D01*
X137659285Y-78890000D01*
X137516428Y-78818571D01*
X137230714Y-78818571D01*
X137087857Y-78890000D01*
X137016428Y-79032857D01*
X137016428Y-79175714D01*
X137730714Y-79318571D01*
X136516428Y-78818571D02*
X136159285Y-79818571D01*
X135802142Y-78818571D01*
X135302142Y-78461428D02*
X135230714Y-78390000D01*
X135087857Y-78318571D01*
X134730714Y-78318571D01*
X134587857Y-78390000D01*
X134516428Y-78461428D01*
X134445000Y-78604285D01*
X134445000Y-78747142D01*
X134516428Y-78961428D01*
X135373571Y-79818571D01*
X134445000Y-79818571D01*
D11*
G04 #@! TO.C,REF\002A\002A\002A*
G36*
X136304186Y-102938931D02*
X136220365Y-103383555D01*
X135911080Y-103511053D01*
X135601794Y-103638551D01*
X135230754Y-103386246D01*
X135126843Y-103315996D01*
X135032913Y-103253272D01*
X134953348Y-103200938D01*
X134892530Y-103161857D01*
X134854843Y-103138893D01*
X134844579Y-103133942D01*
X134826090Y-103146676D01*
X134786580Y-103181882D01*
X134730478Y-103235062D01*
X134662213Y-103301718D01*
X134586214Y-103377354D01*
X134506908Y-103457472D01*
X134428725Y-103537574D01*
X134356093Y-103613164D01*
X134293441Y-103679745D01*
X134245197Y-103732818D01*
X134215790Y-103767887D01*
X134208759Y-103779623D01*
X134218877Y-103801260D01*
X134247241Y-103848662D01*
X134290871Y-103917193D01*
X134346782Y-104002215D01*
X134411994Y-104099093D01*
X134449781Y-104154350D01*
X134518657Y-104255248D01*
X134579860Y-104346299D01*
X134630422Y-104422970D01*
X134667372Y-104480728D01*
X134687742Y-104515043D01*
X134690803Y-104522254D01*
X134683864Y-104542748D01*
X134664949Y-104590513D01*
X134636913Y-104658832D01*
X134602609Y-104740989D01*
X134564891Y-104830270D01*
X134526613Y-104919958D01*
X134490630Y-105003338D01*
X134459794Y-105073694D01*
X134436961Y-105124310D01*
X134424983Y-105148471D01*
X134424276Y-105149422D01*
X134405469Y-105154036D01*
X134355382Y-105164328D01*
X134279207Y-105179287D01*
X134182135Y-105197901D01*
X134069357Y-105219159D01*
X134003558Y-105231418D01*
X133883050Y-105254362D01*
X133774203Y-105276195D01*
X133682524Y-105295722D01*
X133613519Y-105311748D01*
X133572696Y-105323079D01*
X133564489Y-105326674D01*
X133556452Y-105351006D01*
X133549967Y-105405959D01*
X133545030Y-105485108D01*
X133541636Y-105582026D01*
X133539782Y-105690287D01*
X133539462Y-105803465D01*
X133540673Y-105915135D01*
X133543410Y-106018868D01*
X133547669Y-106108241D01*
X133553445Y-106176826D01*
X133560733Y-106218197D01*
X133565105Y-106226810D01*
X133591236Y-106237133D01*
X133646607Y-106251892D01*
X133723893Y-106269352D01*
X133815770Y-106287780D01*
X133847842Y-106293741D01*
X134002476Y-106322066D01*
X134124625Y-106344876D01*
X134218327Y-106363080D01*
X134287616Y-106377583D01*
X134336529Y-106389292D01*
X134369103Y-106399115D01*
X134389372Y-106407956D01*
X134401374Y-106416724D01*
X134403053Y-106418457D01*
X134419816Y-106446371D01*
X134445386Y-106500695D01*
X134477212Y-106574777D01*
X134512740Y-106661965D01*
X134549417Y-106755608D01*
X134584689Y-106849052D01*
X134616004Y-106935647D01*
X134640807Y-107008740D01*
X134656546Y-107061678D01*
X134660668Y-107087811D01*
X134660324Y-107088726D01*
X134646359Y-107110086D01*
X134614678Y-107157084D01*
X134568609Y-107224827D01*
X134511482Y-107308423D01*
X134446627Y-107402982D01*
X134428157Y-107429854D01*
X134362301Y-107527275D01*
X134304350Y-107616163D01*
X134257462Y-107691412D01*
X134224793Y-107747920D01*
X134209500Y-107780581D01*
X134208759Y-107784593D01*
X134221608Y-107805684D01*
X134257112Y-107847464D01*
X134310707Y-107905445D01*
X134377829Y-107975135D01*
X134453913Y-108052045D01*
X134534396Y-108131683D01*
X134614713Y-108209561D01*
X134690301Y-108281186D01*
X134756595Y-108342070D01*
X134809031Y-108387721D01*
X134843045Y-108413650D01*
X134852455Y-108417883D01*
X134874357Y-108407912D01*
X134919200Y-108381020D01*
X134979679Y-108341736D01*
X135026211Y-108310117D01*
X135110525Y-108252098D01*
X135210374Y-108183784D01*
X135310527Y-108115579D01*
X135364373Y-108079075D01*
X135546629Y-107955800D01*
X135699619Y-108038520D01*
X135769318Y-108074759D01*
X135828586Y-108102926D01*
X135868689Y-108118991D01*
X135878897Y-108121226D01*
X135891171Y-108104722D01*
X135915387Y-108058082D01*
X135949737Y-107985609D01*
X135992412Y-107891606D01*
X136041606Y-107780374D01*
X136095510Y-107656215D01*
X136152316Y-107523432D01*
X136210218Y-107386327D01*
X136267407Y-107249202D01*
X136322076Y-107116358D01*
X136372416Y-106992098D01*
X136416620Y-106880725D01*
X136452881Y-106786539D01*
X136479391Y-106713844D01*
X136494342Y-106666941D01*
X136496746Y-106650833D01*
X136477689Y-106630286D01*
X136435964Y-106596933D01*
X136380294Y-106557702D01*
X136375622Y-106554599D01*
X136231736Y-106439423D01*
X136115717Y-106305053D01*
X136028570Y-106155784D01*
X135971301Y-105995913D01*
X135944914Y-105829737D01*
X135950415Y-105661552D01*
X135988810Y-105495655D01*
X136061105Y-105336342D01*
X136082374Y-105301487D01*
X136193004Y-105160737D01*
X136323698Y-105047714D01*
X136469936Y-104963003D01*
X136627192Y-104907194D01*
X136790943Y-104880874D01*
X136956667Y-104884630D01*
X137119838Y-104919050D01*
X137275935Y-104984723D01*
X137420433Y-105082235D01*
X137465131Y-105121813D01*
X137578888Y-105245703D01*
X137661782Y-105376124D01*
X137718644Y-105522315D01*
X137750313Y-105667088D01*
X137758131Y-105829860D01*
X137732062Y-105993440D01*
X137674755Y-106152298D01*
X137588856Y-106300906D01*
X137477014Y-106433735D01*
X137341877Y-106545256D01*
X137324117Y-106557011D01*
X137267850Y-106595508D01*
X137225077Y-106628863D01*
X137204628Y-106650160D01*
X137204331Y-106650833D01*
X137208721Y-106673871D01*
X137226124Y-106726157D01*
X137254732Y-106803390D01*
X137292735Y-106901268D01*
X137338326Y-107015491D01*
X137389697Y-107141758D01*
X137445038Y-107275767D01*
X137502542Y-107413218D01*
X137560399Y-107549808D01*
X137616802Y-107681237D01*
X137669942Y-107803205D01*
X137718010Y-107911409D01*
X137759199Y-108001549D01*
X137791699Y-108069323D01*
X137813703Y-108110430D01*
X137822564Y-108121226D01*
X137849640Y-108112819D01*
X137900303Y-108090272D01*
X137965817Y-108057613D01*
X138001841Y-108038520D01*
X138154832Y-107955800D01*
X138337088Y-108079075D01*
X138430125Y-108142228D01*
X138531985Y-108211727D01*
X138627438Y-108277165D01*
X138675250Y-108310117D01*
X138742495Y-108355273D01*
X138799436Y-108391057D01*
X138838646Y-108412938D01*
X138851381Y-108417563D01*
X138869917Y-108405085D01*
X138910941Y-108370252D01*
X138970475Y-108316678D01*
X139044542Y-108247983D01*
X139129165Y-108167781D01*
X139182685Y-108116286D01*
X139276319Y-108024286D01*
X139357241Y-107941999D01*
X139422177Y-107872945D01*
X139467858Y-107820644D01*
X139491011Y-107788616D01*
X139493232Y-107782116D01*
X139482924Y-107757394D01*
X139454439Y-107707405D01*
X139410937Y-107637212D01*
X139355577Y-107551875D01*
X139291520Y-107456456D01*
X139273303Y-107429854D01*
X139206927Y-107333167D01*
X139147378Y-107246117D01*
X139097984Y-107173595D01*
X139062075Y-107120493D01*
X139042981Y-107091703D01*
X139041136Y-107088726D01*
X139043895Y-107065782D01*
X139058538Y-107015336D01*
X139082513Y-106944041D01*
X139113266Y-106858547D01*
X139148244Y-106765507D01*
X139184893Y-106671574D01*
X139220661Y-106583399D01*
X139252994Y-106507634D01*
X139279338Y-106450931D01*
X139297142Y-106419943D01*
X139298407Y-106418457D01*
X139309294Y-106409601D01*
X139327682Y-106400843D01*
X139357606Y-106391277D01*
X139403103Y-106379996D01*
X139468209Y-106366093D01*
X139556961Y-106348663D01*
X139673393Y-106326798D01*
X139821542Y-106299591D01*
X139853618Y-106293741D01*
X139948686Y-106275374D01*
X140031565Y-106257405D01*
X140094930Y-106241569D01*
X140131458Y-106229600D01*
X140136356Y-106226810D01*
X140144427Y-106202072D01*
X140150987Y-106146790D01*
X140156033Y-106067389D01*
X140159559Y-105970296D01*
X140161561Y-105861938D01*
X140162036Y-105748740D01*
X140160977Y-105637128D01*
X140158382Y-105533529D01*
X140154246Y-105444368D01*
X140148563Y-105376072D01*
X140141331Y-105335066D01*
X140136971Y-105326674D01*
X140112698Y-105318208D01*
X140057426Y-105304435D01*
X139976662Y-105286550D01*
X139875912Y-105265748D01*
X139760683Y-105243223D01*
X139697902Y-105231418D01*
X139578787Y-105209151D01*
X139472565Y-105188979D01*
X139384427Y-105171915D01*
X139319566Y-105158969D01*
X139283174Y-105151155D01*
X139277184Y-105149422D01*
X139267061Y-105129890D01*
X139245662Y-105082843D01*
X139215839Y-105015003D01*
X139180445Y-104933091D01*
X139142332Y-104843828D01*
X139104353Y-104753935D01*
X139069360Y-104670135D01*
X139040206Y-104599147D01*
X139019743Y-104547694D01*
X139010823Y-104522497D01*
X139010657Y-104521396D01*
X139020769Y-104501519D01*
X139049117Y-104455777D01*
X139092723Y-104388717D01*
X139148606Y-104304884D01*
X139213787Y-104208826D01*
X139251679Y-104153650D01*
X139320725Y-104052481D01*
X139382050Y-103960630D01*
X139432663Y-103882744D01*
X139469571Y-103823469D01*
X139489782Y-103787451D01*
X139492701Y-103779377D01*
X139480153Y-103760584D01*
X139445463Y-103720457D01*
X139393063Y-103663493D01*
X139327384Y-103594185D01*
X139252856Y-103517031D01*
X139173913Y-103436525D01*
X139094983Y-103357163D01*
X139020500Y-103283440D01*
X138954894Y-103219852D01*
X138902596Y-103170894D01*
X138868039Y-103141061D01*
X138856478Y-103133942D01*
X138837654Y-103143953D01*
X138792631Y-103172078D01*
X138725787Y-103215454D01*
X138641499Y-103271218D01*
X138544144Y-103336506D01*
X138470707Y-103386246D01*
X138099667Y-103638551D01*
X137481095Y-103383555D01*
X137397275Y-102938931D01*
X137313454Y-102494307D01*
X136388006Y-102494307D01*
X136304186Y-102938931D01*
X136304186Y-102938931D01*
G37*
X136304186Y-102938931D02*
X136220365Y-103383555D01*
X135911080Y-103511053D01*
X135601794Y-103638551D01*
X135230754Y-103386246D01*
X135126843Y-103315996D01*
X135032913Y-103253272D01*
X134953348Y-103200938D01*
X134892530Y-103161857D01*
X134854843Y-103138893D01*
X134844579Y-103133942D01*
X134826090Y-103146676D01*
X134786580Y-103181882D01*
X134730478Y-103235062D01*
X134662213Y-103301718D01*
X134586214Y-103377354D01*
X134506908Y-103457472D01*
X134428725Y-103537574D01*
X134356093Y-103613164D01*
X134293441Y-103679745D01*
X134245197Y-103732818D01*
X134215790Y-103767887D01*
X134208759Y-103779623D01*
X134218877Y-103801260D01*
X134247241Y-103848662D01*
X134290871Y-103917193D01*
X134346782Y-104002215D01*
X134411994Y-104099093D01*
X134449781Y-104154350D01*
X134518657Y-104255248D01*
X134579860Y-104346299D01*
X134630422Y-104422970D01*
X134667372Y-104480728D01*
X134687742Y-104515043D01*
X134690803Y-104522254D01*
X134683864Y-104542748D01*
X134664949Y-104590513D01*
X134636913Y-104658832D01*
X134602609Y-104740989D01*
X134564891Y-104830270D01*
X134526613Y-104919958D01*
X134490630Y-105003338D01*
X134459794Y-105073694D01*
X134436961Y-105124310D01*
X134424983Y-105148471D01*
X134424276Y-105149422D01*
X134405469Y-105154036D01*
X134355382Y-105164328D01*
X134279207Y-105179287D01*
X134182135Y-105197901D01*
X134069357Y-105219159D01*
X134003558Y-105231418D01*
X133883050Y-105254362D01*
X133774203Y-105276195D01*
X133682524Y-105295722D01*
X133613519Y-105311748D01*
X133572696Y-105323079D01*
X133564489Y-105326674D01*
X133556452Y-105351006D01*
X133549967Y-105405959D01*
X133545030Y-105485108D01*
X133541636Y-105582026D01*
X133539782Y-105690287D01*
X133539462Y-105803465D01*
X133540673Y-105915135D01*
X133543410Y-106018868D01*
X133547669Y-106108241D01*
X133553445Y-106176826D01*
X133560733Y-106218197D01*
X133565105Y-106226810D01*
X133591236Y-106237133D01*
X133646607Y-106251892D01*
X133723893Y-106269352D01*
X133815770Y-106287780D01*
X133847842Y-106293741D01*
X134002476Y-106322066D01*
X134124625Y-106344876D01*
X134218327Y-106363080D01*
X134287616Y-106377583D01*
X134336529Y-106389292D01*
X134369103Y-106399115D01*
X134389372Y-106407956D01*
X134401374Y-106416724D01*
X134403053Y-106418457D01*
X134419816Y-106446371D01*
X134445386Y-106500695D01*
X134477212Y-106574777D01*
X134512740Y-106661965D01*
X134549417Y-106755608D01*
X134584689Y-106849052D01*
X134616004Y-106935647D01*
X134640807Y-107008740D01*
X134656546Y-107061678D01*
X134660668Y-107087811D01*
X134660324Y-107088726D01*
X134646359Y-107110086D01*
X134614678Y-107157084D01*
X134568609Y-107224827D01*
X134511482Y-107308423D01*
X134446627Y-107402982D01*
X134428157Y-107429854D01*
X134362301Y-107527275D01*
X134304350Y-107616163D01*
X134257462Y-107691412D01*
X134224793Y-107747920D01*
X134209500Y-107780581D01*
X134208759Y-107784593D01*
X134221608Y-107805684D01*
X134257112Y-107847464D01*
X134310707Y-107905445D01*
X134377829Y-107975135D01*
X134453913Y-108052045D01*
X134534396Y-108131683D01*
X134614713Y-108209561D01*
X134690301Y-108281186D01*
X134756595Y-108342070D01*
X134809031Y-108387721D01*
X134843045Y-108413650D01*
X134852455Y-108417883D01*
X134874357Y-108407912D01*
X134919200Y-108381020D01*
X134979679Y-108341736D01*
X135026211Y-108310117D01*
X135110525Y-108252098D01*
X135210374Y-108183784D01*
X135310527Y-108115579D01*
X135364373Y-108079075D01*
X135546629Y-107955800D01*
X135699619Y-108038520D01*
X135769318Y-108074759D01*
X135828586Y-108102926D01*
X135868689Y-108118991D01*
X135878897Y-108121226D01*
X135891171Y-108104722D01*
X135915387Y-108058082D01*
X135949737Y-107985609D01*
X135992412Y-107891606D01*
X136041606Y-107780374D01*
X136095510Y-107656215D01*
X136152316Y-107523432D01*
X136210218Y-107386327D01*
X136267407Y-107249202D01*
X136322076Y-107116358D01*
X136372416Y-106992098D01*
X136416620Y-106880725D01*
X136452881Y-106786539D01*
X136479391Y-106713844D01*
X136494342Y-106666941D01*
X136496746Y-106650833D01*
X136477689Y-106630286D01*
X136435964Y-106596933D01*
X136380294Y-106557702D01*
X136375622Y-106554599D01*
X136231736Y-106439423D01*
X136115717Y-106305053D01*
X136028570Y-106155784D01*
X135971301Y-105995913D01*
X135944914Y-105829737D01*
X135950415Y-105661552D01*
X135988810Y-105495655D01*
X136061105Y-105336342D01*
X136082374Y-105301487D01*
X136193004Y-105160737D01*
X136323698Y-105047714D01*
X136469936Y-104963003D01*
X136627192Y-104907194D01*
X136790943Y-104880874D01*
X136956667Y-104884630D01*
X137119838Y-104919050D01*
X137275935Y-104984723D01*
X137420433Y-105082235D01*
X137465131Y-105121813D01*
X137578888Y-105245703D01*
X137661782Y-105376124D01*
X137718644Y-105522315D01*
X137750313Y-105667088D01*
X137758131Y-105829860D01*
X137732062Y-105993440D01*
X137674755Y-106152298D01*
X137588856Y-106300906D01*
X137477014Y-106433735D01*
X137341877Y-106545256D01*
X137324117Y-106557011D01*
X137267850Y-106595508D01*
X137225077Y-106628863D01*
X137204628Y-106650160D01*
X137204331Y-106650833D01*
X137208721Y-106673871D01*
X137226124Y-106726157D01*
X137254732Y-106803390D01*
X137292735Y-106901268D01*
X137338326Y-107015491D01*
X137389697Y-107141758D01*
X137445038Y-107275767D01*
X137502542Y-107413218D01*
X137560399Y-107549808D01*
X137616802Y-107681237D01*
X137669942Y-107803205D01*
X137718010Y-107911409D01*
X137759199Y-108001549D01*
X137791699Y-108069323D01*
X137813703Y-108110430D01*
X137822564Y-108121226D01*
X137849640Y-108112819D01*
X137900303Y-108090272D01*
X137965817Y-108057613D01*
X138001841Y-108038520D01*
X138154832Y-107955800D01*
X138337088Y-108079075D01*
X138430125Y-108142228D01*
X138531985Y-108211727D01*
X138627438Y-108277165D01*
X138675250Y-108310117D01*
X138742495Y-108355273D01*
X138799436Y-108391057D01*
X138838646Y-108412938D01*
X138851381Y-108417563D01*
X138869917Y-108405085D01*
X138910941Y-108370252D01*
X138970475Y-108316678D01*
X139044542Y-108247983D01*
X139129165Y-108167781D01*
X139182685Y-108116286D01*
X139276319Y-108024286D01*
X139357241Y-107941999D01*
X139422177Y-107872945D01*
X139467858Y-107820644D01*
X139491011Y-107788616D01*
X139493232Y-107782116D01*
X139482924Y-107757394D01*
X139454439Y-107707405D01*
X139410937Y-107637212D01*
X139355577Y-107551875D01*
X139291520Y-107456456D01*
X139273303Y-107429854D01*
X139206927Y-107333167D01*
X139147378Y-107246117D01*
X139097984Y-107173595D01*
X139062075Y-107120493D01*
X139042981Y-107091703D01*
X139041136Y-107088726D01*
X139043895Y-107065782D01*
X139058538Y-107015336D01*
X139082513Y-106944041D01*
X139113266Y-106858547D01*
X139148244Y-106765507D01*
X139184893Y-106671574D01*
X139220661Y-106583399D01*
X139252994Y-106507634D01*
X139279338Y-106450931D01*
X139297142Y-106419943D01*
X139298407Y-106418457D01*
X139309294Y-106409601D01*
X139327682Y-106400843D01*
X139357606Y-106391277D01*
X139403103Y-106379996D01*
X139468209Y-106366093D01*
X139556961Y-106348663D01*
X139673393Y-106326798D01*
X139821542Y-106299591D01*
X139853618Y-106293741D01*
X139948686Y-106275374D01*
X140031565Y-106257405D01*
X140094930Y-106241569D01*
X140131458Y-106229600D01*
X140136356Y-106226810D01*
X140144427Y-106202072D01*
X140150987Y-106146790D01*
X140156033Y-106067389D01*
X140159559Y-105970296D01*
X140161561Y-105861938D01*
X140162036Y-105748740D01*
X140160977Y-105637128D01*
X140158382Y-105533529D01*
X140154246Y-105444368D01*
X140148563Y-105376072D01*
X140141331Y-105335066D01*
X140136971Y-105326674D01*
X140112698Y-105318208D01*
X140057426Y-105304435D01*
X139976662Y-105286550D01*
X139875912Y-105265748D01*
X139760683Y-105243223D01*
X139697902Y-105231418D01*
X139578787Y-105209151D01*
X139472565Y-105188979D01*
X139384427Y-105171915D01*
X139319566Y-105158969D01*
X139283174Y-105151155D01*
X139277184Y-105149422D01*
X139267061Y-105129890D01*
X139245662Y-105082843D01*
X139215839Y-105015003D01*
X139180445Y-104933091D01*
X139142332Y-104843828D01*
X139104353Y-104753935D01*
X139069360Y-104670135D01*
X139040206Y-104599147D01*
X139019743Y-104547694D01*
X139010823Y-104522497D01*
X139010657Y-104521396D01*
X139020769Y-104501519D01*
X139049117Y-104455777D01*
X139092723Y-104388717D01*
X139148606Y-104304884D01*
X139213787Y-104208826D01*
X139251679Y-104153650D01*
X139320725Y-104052481D01*
X139382050Y-103960630D01*
X139432663Y-103882744D01*
X139469571Y-103823469D01*
X139489782Y-103787451D01*
X139492701Y-103779377D01*
X139480153Y-103760584D01*
X139445463Y-103720457D01*
X139393063Y-103663493D01*
X139327384Y-103594185D01*
X139252856Y-103517031D01*
X139173913Y-103436525D01*
X139094983Y-103357163D01*
X139020500Y-103283440D01*
X138954894Y-103219852D01*
X138902596Y-103170894D01*
X138868039Y-103141061D01*
X138856478Y-103133942D01*
X138837654Y-103143953D01*
X138792631Y-103172078D01*
X138725787Y-103215454D01*
X138641499Y-103271218D01*
X138544144Y-103336506D01*
X138470707Y-103386246D01*
X138099667Y-103638551D01*
X137481095Y-103383555D01*
X137397275Y-102938931D01*
X137313454Y-102494307D01*
X136388006Y-102494307D01*
X136304186Y-102938931D01*
G04 #@! TD*
D12*
G04 #@! TO.P,TR1,5*
G04 #@! TO.N,Net-(D2-Pad1)*
X132080000Y-91694000D03*
G04 #@! TO.P,TR1,6*
G04 #@! TO.N,GNDREF*
X148590000Y-90170000D03*
G04 #@! TO.P,TR1,7*
X148590000Y-93218000D03*
G04 #@! TO.P,TR1,8*
G04 #@! TO.N,Net-(D1-Pad1)*
X144272000Y-91694000D03*
G04 #@! TD*
D13*
G04 #@! TO.P,C3,1*
G04 #@! TO.N,Net-(C1-Pad1)*
X171475000Y-77100000D03*
D14*
G04 #@! TO.P,C3,2*
G04 #@! TO.N,GNDREF*
X171475000Y-84600000D03*
G04 #@! TD*
D15*
G04 #@! TO.P,D5,1*
G04 #@! TO.N,Net-(C1-Pad1)*
X197739000Y-71374000D03*
D16*
G04 #@! TO.P,D5,2*
G04 #@! TO.N,+12V*
X197739000Y-73914000D03*
G04 #@! TD*
D17*
G04 #@! TO.P,U1,2*
G04 #@! TO.N,+12V*
X188747000Y-73920000D03*
G04 #@! TO.P,U1,3*
G04 #@! TO.N,Net-(C1-Pad1)*
X188747000Y-71380000D03*
G04 #@! TO.P,U1,1*
G04 #@! TO.N,Net-(C7-Pad1)*
X188747000Y-76460000D03*
G04 #@! TD*
D15*
G04 #@! TO.P,C8,1*
G04 #@! TO.N,GNDREF*
X201803000Y-95504000D03*
D18*
G04 #@! TO.P,C8,2*
G04 #@! TO.N,Net-(C8-Pad2)*
X201803000Y-97504000D03*
G04 #@! TD*
D19*
G04 #@! TO.P,D4,2*
G04 #@! TO.N,Net-(D2-Pad1)*
X135636000Y-89662000D03*
D13*
G04 #@! TO.P,D4,1*
G04 #@! TO.N,Net-(C1-Pad1)*
X135636000Y-84582000D03*
G04 #@! TD*
D14*
G04 #@! TO.P,C2,2*
G04 #@! TO.N,Net-(C2-Pad2)*
X153016000Y-106050000D03*
D13*
G04 #@! TO.P,C2,1*
G04 #@! TO.N,GNDREF*
X153016000Y-98550000D03*
G04 #@! TD*
G04 #@! TO.P,C4,1*
G04 #@! TO.N,GNDREF*
X171475000Y-98550000D03*
D14*
G04 #@! TO.P,C4,2*
G04 #@! TO.N,Net-(C2-Pad2)*
X171475000Y-106050000D03*
G04 #@! TD*
G04 #@! TO.P,C1,2*
G04 #@! TO.N,GNDREF*
X153016000Y-84425000D03*
D13*
G04 #@! TO.P,C1,1*
G04 #@! TO.N,Net-(C1-Pad1)*
X153016000Y-76925000D03*
G04 #@! TD*
D18*
G04 #@! TO.P,C5,2*
G04 #@! TO.N,GNDREF*
X184072000Y-86975000D03*
G04 #@! TO.P,C5,1*
G04 #@! TO.N,Net-(C1-Pad1)*
X184072000Y-81975000D03*
G04 #@! TD*
G04 #@! TO.P,C6,1*
G04 #@! TO.N,GNDREF*
X184097000Y-96950000D03*
G04 #@! TO.P,C6,2*
G04 #@! TO.N,Net-(C2-Pad2)*
X184097000Y-101950000D03*
G04 #@! TD*
G04 #@! TO.P,C7,2*
G04 #@! TO.N,GNDREF*
X201803000Y-90773000D03*
D15*
G04 #@! TO.P,C7,1*
G04 #@! TO.N,Net-(C7-Pad1)*
X201803000Y-88773000D03*
G04 #@! TD*
D18*
G04 #@! TO.P,C9,2*
G04 #@! TO.N,GNDREF*
X212472000Y-88150000D03*
D15*
G04 #@! TO.P,C9,1*
G04 #@! TO.N,+12V*
X212472000Y-83150000D03*
G04 #@! TD*
D18*
G04 #@! TO.P,C10,2*
G04 #@! TO.N,-12V*
X212600000Y-100450000D03*
D15*
G04 #@! TO.P,C10,1*
G04 #@! TO.N,GNDREF*
X212600000Y-95450000D03*
G04 #@! TD*
D19*
G04 #@! TO.P,D1,2*
G04 #@! TO.N,Net-(C2-Pad2)*
X140716000Y-99314000D03*
D13*
G04 #@! TO.P,D1,1*
G04 #@! TO.N,Net-(D1-Pad1)*
X140716000Y-94234000D03*
G04 #@! TD*
G04 #@! TO.P,D2,1*
G04 #@! TO.N,Net-(D2-Pad1)*
X135636000Y-94234000D03*
D19*
G04 #@! TO.P,D2,2*
G04 #@! TO.N,Net-(C2-Pad2)*
X135636000Y-99314000D03*
G04 #@! TD*
D13*
G04 #@! TO.P,D3,1*
G04 #@! TO.N,Net-(C1-Pad1)*
X140716000Y-84582000D03*
D19*
G04 #@! TO.P,D3,2*
G04 #@! TO.N,Net-(D1-Pad1)*
X140716000Y-89662000D03*
G04 #@! TD*
D15*
G04 #@! TO.P,D6,1*
G04 #@! TO.N,-12V*
X184658000Y-112776000D03*
D16*
G04 #@! TO.P,D6,2*
G04 #@! TO.N,Net-(C2-Pad2)*
X184658000Y-110236000D03*
G04 #@! TD*
D12*
G04 #@! TO.P,D7,2*
G04 #@! TO.N,Net-(D7-Pad2)*
X207137000Y-84455000D03*
D20*
G04 #@! TO.P,D7,1*
G04 #@! TO.N,GNDREF*
X207137000Y-86995000D03*
G04 #@! TD*
G04 #@! TO.P,D8,1*
G04 #@! TO.N,Net-(D8-Pad1)*
X207264000Y-102108000D03*
D12*
G04 #@! TO.P,D8,2*
G04 #@! TO.N,GNDREF*
X207264000Y-99568000D03*
G04 #@! TD*
D21*
G04 #@! TO.P,RV2,3*
G04 #@! TO.N,GNDREF*
X188468000Y-86487000D03*
G04 #@! TO.P,RV2,2*
X191008000Y-83947000D03*
G04 #@! TO.P,RV2,1*
G04 #@! TO.N,Net-(R1-Pad2)*
X193548000Y-86487000D03*
G04 #@! TD*
G04 #@! TO.P,RV3,3*
G04 #@! TO.N,Net-(R2-Pad1)*
X193577000Y-97409000D03*
G04 #@! TO.P,RV3,2*
G04 #@! TO.N,GNDREF*
X191037000Y-99949000D03*
G04 #@! TO.P,RV3,1*
X188497000Y-97409000D03*
G04 #@! TD*
D17*
G04 #@! TO.P,U2,2*
G04 #@! TO.N,Net-(C2-Pad2)*
X193147000Y-112172000D03*
G04 #@! TO.P,U2,3*
G04 #@! TO.N,-12V*
X193147000Y-114712000D03*
G04 #@! TO.P,U2,1*
G04 #@! TO.N,Net-(C8-Pad2)*
X193147000Y-109632000D03*
G04 #@! TD*
D22*
G04 #@! TO.P,J1,16*
G04 #@! TO.N,-12V*
X220207000Y-100455000D03*
G04 #@! TO.P,J1,15*
X222747000Y-100455000D03*
G04 #@! TO.P,J1,14*
G04 #@! TO.N,GNDREF*
X220207000Y-97915000D03*
G04 #@! TO.P,J1,13*
X222747000Y-97915000D03*
G04 #@! TO.P,J1,12*
X220207000Y-95375000D03*
G04 #@! TO.P,J1,11*
X222747000Y-95375000D03*
G04 #@! TO.P,J1,10*
X220207000Y-92835000D03*
G04 #@! TO.P,J1,9*
X222747000Y-92835000D03*
G04 #@! TO.P,J1,8*
G04 #@! TO.N,+12V*
X220207000Y-90295000D03*
G04 #@! TO.P,J1,7*
X222747000Y-90295000D03*
G04 #@! TO.P,J1,6*
G04 #@! TO.N,Net-(J1-Pad5)*
X220207000Y-87755000D03*
G04 #@! TO.P,J1,5*
X222747000Y-87755000D03*
G04 #@! TO.P,J1,4*
G04 #@! TO.N,Net-(J1-Pad3)*
X220207000Y-85215000D03*
G04 #@! TO.P,J1,3*
X222747000Y-85215000D03*
G04 #@! TO.P,J1,2*
G04 #@! TO.N,Net-(J1-Pad1)*
X220207000Y-82675000D03*
D23*
G04 #@! TO.P,J1,1*
X222747000Y-82675000D03*
G04 #@! TD*
D18*
G04 #@! TO.P,R1,1*
G04 #@! TO.N,Net-(C7-Pad1)*
X197739000Y-78613000D03*
D16*
G04 #@! TO.P,R1,2*
G04 #@! TO.N,Net-(R1-Pad2)*
X197739000Y-86487000D03*
G04 #@! TD*
G04 #@! TO.P,R2,2*
G04 #@! TO.N,Net-(C8-Pad2)*
X193427000Y-103297000D03*
D18*
G04 #@! TO.P,R2,1*
G04 #@! TO.N,Net-(R2-Pad1)*
X201047000Y-103297000D03*
G04 #@! TD*
D16*
G04 #@! TO.P,R3,2*
G04 #@! TO.N,Net-(C7-Pad1)*
X203327000Y-81534000D03*
D18*
G04 #@! TO.P,R3,1*
G04 #@! TO.N,+12V*
X203327000Y-73914000D03*
G04 #@! TD*
D16*
G04 #@! TO.P,R4,2*
G04 #@! TO.N,-12V*
X204724000Y-112670000D03*
D18*
G04 #@! TO.P,R4,1*
G04 #@! TO.N,Net-(C8-Pad2)*
X204724000Y-105050000D03*
G04 #@! TD*
G04 #@! TO.P,R5,1*
G04 #@! TO.N,+12V*
X207137000Y-73914000D03*
D16*
G04 #@! TO.P,R5,2*
G04 #@! TO.N,Net-(D7-Pad2)*
X207137000Y-81534000D03*
G04 #@! TD*
D18*
G04 #@! TO.P,R6,1*
G04 #@! TO.N,Net-(D8-Pad1)*
X208153000Y-105029000D03*
D16*
G04 #@! TO.P,R6,2*
G04 #@! TO.N,-12V*
X208153000Y-112649000D03*
G04 #@! TD*
D24*
G04 #@! TO.N,*
X198147000Y-112172000D03*
X183747000Y-73920000D03*
G04 #@! TD*
D25*
G04 #@! TO.N,GNDREF*
X171300000Y-84425000D02*
X171475000Y-84600000D01*
D26*
X208922000Y-91700000D02*
X212472000Y-88150000D01*
X220107000Y-95275000D02*
X220207000Y-95375000D01*
X220207000Y-95375000D02*
X220207000Y-97915000D01*
X220207000Y-95375000D02*
X220207000Y-92835000D01*
X221447000Y-97915000D02*
X222747000Y-97915000D01*
X220207000Y-97915000D02*
X221447000Y-97915000D01*
X221447000Y-92835000D02*
X222747000Y-92835000D01*
X220207000Y-92835000D02*
X221447000Y-92835000D01*
X222747000Y-95375000D02*
X222747000Y-92835000D01*
X222747000Y-97915000D02*
X222747000Y-95375000D01*
X221447000Y-92835000D02*
X221447000Y-97915000D01*
D27*
X207137000Y-91700000D02*
X188715000Y-91700000D01*
X188467000Y-91452000D02*
X188715000Y-91700000D01*
X188467000Y-91452000D02*
X186067000Y-91452000D01*
D25*
X207264000Y-95645000D02*
X208922000Y-93987000D01*
D27*
X207137000Y-91700000D02*
X208922000Y-91700000D01*
X188468000Y-91453000D02*
X188497000Y-91482000D01*
X188468000Y-86487000D02*
X188468000Y-91453000D01*
X188468000Y-86487000D02*
X191008000Y-83947000D01*
X188497000Y-91482000D02*
X188467000Y-91452000D01*
X188497000Y-97409000D02*
X188497000Y-91482000D01*
X188497000Y-97409000D02*
X191037000Y-99949000D01*
D28*
X207137000Y-86995000D02*
X207137000Y-91700000D01*
X207264000Y-98295208D02*
X207260000Y-98291208D01*
X207264000Y-99568000D02*
X207264000Y-98295208D01*
X207260000Y-98291208D02*
X207260000Y-95240000D01*
D25*
G04 #@! TO.N,Net-(C1-Pad1)*
X152175000Y-77100000D02*
X152000000Y-76925000D01*
D27*
X140716000Y-84582000D02*
X144343000Y-84582000D01*
X135636000Y-84582000D02*
X140716000Y-84582000D01*
D26*
X197733000Y-71380000D02*
X197739000Y-71374000D01*
X188747000Y-71380000D02*
X197733000Y-71380000D01*
X144343000Y-84582000D02*
X144418000Y-84582000D01*
D27*
X144343000Y-84582000D02*
X144343000Y-84557000D01*
X144343000Y-84557000D02*
X149750000Y-79150000D01*
D26*
X180925000Y-72900000D02*
X180950000Y-79925000D01*
X183642000Y-71374000D02*
X180925000Y-72900000D01*
X188229672Y-71374000D02*
X183642000Y-71374000D01*
D27*
G04 #@! TO.N,Net-(C2-Pad2)*
X140716000Y-99314000D02*
X145264000Y-99314000D01*
X135636000Y-99314000D02*
X140716000Y-99314000D01*
D26*
X187385602Y-112172000D02*
X185449602Y-110236000D01*
X185449602Y-110236000D02*
X184658000Y-110236000D01*
X193147000Y-112172000D02*
X187385602Y-112172000D01*
X184658000Y-110236000D02*
X184658000Y-104140000D01*
D27*
X145264000Y-99314000D02*
X149375000Y-103425000D01*
D26*
G04 #@! TO.N,Net-(C7-Pad1)*
X191541000Y-76460000D02*
X193706000Y-78625000D01*
X188747000Y-76460000D02*
X191541000Y-76460000D01*
X193718000Y-78613000D02*
X197739000Y-78613000D01*
X193706000Y-78625000D02*
X193718000Y-78613000D01*
X200406000Y-78613000D02*
X203327000Y-81534000D01*
X197739000Y-78613000D02*
X200406000Y-78613000D01*
X203327000Y-87249000D02*
X201803000Y-88773000D01*
X203327000Y-81534000D02*
X203327000Y-87249000D01*
G04 #@! TO.N,Net-(C8-Pad2)*
X193427000Y-109352000D02*
X193147000Y-109632000D01*
X193427000Y-103297000D02*
X193427000Y-109352000D01*
X204747000Y-105027000D02*
X204724000Y-105050000D01*
X200142000Y-109632000D02*
X204724000Y-105050000D01*
X193147000Y-109632000D02*
X200142000Y-109632000D01*
X204724000Y-100425000D02*
X201803000Y-97504000D01*
X204724000Y-105050000D02*
X204724000Y-100425000D01*
G04 #@! TO.N,+12V*
X220207000Y-90295000D02*
X222747000Y-90295000D01*
X219617000Y-90295000D02*
X220207000Y-90295000D01*
X212472000Y-83150000D02*
X219617000Y-90295000D01*
X197733000Y-73920000D02*
X197739000Y-73914000D01*
X188747000Y-73920000D02*
X197733000Y-73920000D01*
X197739000Y-73914000D02*
X207137000Y-73914000D01*
X203236000Y-73914000D02*
X212472000Y-83150000D01*
X202438000Y-73914000D02*
X203236000Y-73914000D01*
G04 #@! TO.N,-12V*
X220207000Y-100455000D02*
X222747000Y-100455000D01*
X186594000Y-114712000D02*
X184658000Y-112776000D01*
X193147000Y-114712000D02*
X186594000Y-114712000D01*
X202682000Y-114712000D02*
X204724000Y-112670000D01*
X193147000Y-114712000D02*
X202682000Y-114712000D01*
X212622000Y-104772000D02*
X204724000Y-112670000D01*
X208132000Y-112670000D02*
X208153000Y-112649000D01*
X204724000Y-112670000D02*
X208132000Y-112670000D01*
X220202000Y-100450000D02*
X220207000Y-100455000D01*
X212600000Y-100450000D02*
X220202000Y-100450000D01*
X212622000Y-101603370D02*
X212622000Y-104772000D01*
X212600000Y-101581370D02*
X212622000Y-101603370D01*
X212600000Y-100450000D02*
X212600000Y-101581370D01*
D27*
G04 #@! TO.N,Net-(D1-Pad1)*
X142748000Y-91694000D02*
X140716000Y-89662000D01*
X144272000Y-91694000D02*
X142748000Y-91694000D01*
X143256000Y-91694000D02*
X140716000Y-94234000D01*
X144272000Y-91694000D02*
X143256000Y-91694000D01*
X140716000Y-89662000D02*
X140716000Y-94234000D01*
G04 #@! TO.N,Net-(D2-Pad1)*
X135636000Y-89662000D02*
X135636000Y-94234000D01*
X133096000Y-91694000D02*
X135636000Y-94234000D01*
X132080000Y-91694000D02*
X133096000Y-91694000D01*
X133604000Y-91694000D02*
X135636000Y-89662000D01*
X132080000Y-91694000D02*
X133604000Y-91694000D01*
D28*
G04 #@! TO.N,Net-(D7-Pad2)*
X207137000Y-81534000D02*
X207137000Y-84455000D01*
G04 #@! TO.N,Net-(D8-Pad1)*
X208153000Y-102997000D02*
X207264000Y-102108000D01*
X208153000Y-105029000D02*
X208153000Y-102997000D01*
D26*
G04 #@! TO.N,Net-(R1-Pad2)*
X193548000Y-86487000D02*
X197739000Y-86487000D01*
G04 #@! TO.N,Net-(R2-Pad1)*
X195159000Y-97409000D02*
X201047000Y-103297000D01*
X193577000Y-97409000D02*
X195159000Y-97409000D01*
G04 #@! TO.N,Net-(J1-Pad5)*
X220207000Y-87755000D02*
X222747000Y-87755000D01*
G04 #@! TO.N,Net-(J1-Pad3)*
X220207000Y-85215000D02*
X222747000Y-85215000D01*
G04 #@! TO.N,Net-(J1-Pad1)*
X220207000Y-82675000D02*
X222747000Y-82675000D01*
G04 #@! TD*
D29*
G04 #@! TO.N,Net-(C2-Pad2)*
G36*
X185553022Y-100769628D02*
X185798100Y-102852791D01*
X185331620Y-104018990D01*
X181854952Y-104267323D01*
X181807163Y-104280428D01*
X181786030Y-104293752D01*
X179500030Y-106071752D01*
X179480436Y-106090697D01*
X178214131Y-107610263D01*
X177477396Y-108346998D01*
X176763390Y-108585000D01*
X146587980Y-108585000D01*
X146144660Y-108363340D01*
X145923000Y-107920020D01*
X145923000Y-107347175D01*
X151898430Y-107347175D01*
X152021565Y-107634788D01*
X152703734Y-107894707D01*
X153433443Y-107873786D01*
X154010435Y-107634788D01*
X154133570Y-107347175D01*
X170357430Y-107347175D01*
X170480565Y-107634788D01*
X171162734Y-107894707D01*
X171892443Y-107873786D01*
X172469435Y-107634788D01*
X172592570Y-107347175D01*
X171475000Y-106229605D01*
X170357430Y-107347175D01*
X154133570Y-107347175D01*
X153016000Y-106229605D01*
X151898430Y-107347175D01*
X145923000Y-107347175D01*
X145923000Y-105737734D01*
X151171293Y-105737734D01*
X151192214Y-106467443D01*
X151431212Y-107044435D01*
X151718825Y-107167570D01*
X152836395Y-106050000D01*
X153195605Y-106050000D01*
X154313175Y-107167570D01*
X154600788Y-107044435D01*
X154860707Y-106362266D01*
X154842802Y-105737734D01*
X169630293Y-105737734D01*
X169651214Y-106467443D01*
X169890212Y-107044435D01*
X170177825Y-107167570D01*
X171295395Y-106050000D01*
X171654605Y-106050000D01*
X172772175Y-107167570D01*
X173059788Y-107044435D01*
X173319707Y-106362266D01*
X173298786Y-105632557D01*
X173059788Y-105055565D01*
X172772175Y-104932430D01*
X171654605Y-106050000D01*
X171295395Y-106050000D01*
X170177825Y-104932430D01*
X169890212Y-105055565D01*
X169630293Y-105737734D01*
X154842802Y-105737734D01*
X154839786Y-105632557D01*
X154600788Y-105055565D01*
X154313175Y-104932430D01*
X153195605Y-106050000D01*
X152836395Y-106050000D01*
X151718825Y-104932430D01*
X151431212Y-105055565D01*
X151171293Y-105737734D01*
X145923000Y-105737734D01*
X145923000Y-104752825D01*
X151898430Y-104752825D01*
X153016000Y-105870395D01*
X154133570Y-104752825D01*
X170357430Y-104752825D01*
X171475000Y-105870395D01*
X172592570Y-104752825D01*
X172469435Y-104465212D01*
X171787266Y-104205293D01*
X171057557Y-104226214D01*
X170480565Y-104465212D01*
X170357430Y-104752825D01*
X154133570Y-104752825D01*
X154010435Y-104465212D01*
X153328266Y-104205293D01*
X152598557Y-104226214D01*
X152021565Y-104465212D01*
X151898430Y-104752825D01*
X145923000Y-104752825D01*
X145923000Y-103407980D01*
X146144660Y-102964660D01*
X146158490Y-102957745D01*
X183268861Y-102957745D01*
X183342995Y-103203864D01*
X183880223Y-103396965D01*
X184450454Y-103369778D01*
X184851005Y-103203864D01*
X184925139Y-102957745D01*
X184097000Y-102129605D01*
X183268861Y-102957745D01*
X146158490Y-102957745D01*
X146587980Y-102743000D01*
X176784000Y-102743000D01*
X176828289Y-102735027D01*
X179520637Y-101733223D01*
X182650035Y-101733223D01*
X182677222Y-102303454D01*
X182843136Y-102704005D01*
X183089255Y-102778139D01*
X183917395Y-101950000D01*
X184276605Y-101950000D01*
X185104745Y-102778139D01*
X185350864Y-102704005D01*
X185543965Y-102166777D01*
X185516778Y-101596546D01*
X185350864Y-101195995D01*
X185104745Y-101121861D01*
X184276605Y-101950000D01*
X183917395Y-101950000D01*
X183089255Y-101121861D01*
X182843136Y-101195995D01*
X182650035Y-101733223D01*
X179520637Y-101733223D01*
X181646363Y-100942255D01*
X183268861Y-100942255D01*
X184097000Y-101770395D01*
X184925139Y-100942255D01*
X184851005Y-100696136D01*
X184313777Y-100503035D01*
X183743546Y-100530222D01*
X183342995Y-100696136D01*
X183268861Y-100942255D01*
X181646363Y-100942255D01*
X182278767Y-100706942D01*
X184996249Y-100212855D01*
X185553022Y-100769628D01*
X185553022Y-100769628D01*
G37*
X185553022Y-100769628D02*
X185798100Y-102852791D01*
X185331620Y-104018990D01*
X181854952Y-104267323D01*
X181807163Y-104280428D01*
X181786030Y-104293752D01*
X179500030Y-106071752D01*
X179480436Y-106090697D01*
X178214131Y-107610263D01*
X177477396Y-108346998D01*
X176763390Y-108585000D01*
X146587980Y-108585000D01*
X146144660Y-108363340D01*
X145923000Y-107920020D01*
X145923000Y-107347175D01*
X151898430Y-107347175D01*
X152021565Y-107634788D01*
X152703734Y-107894707D01*
X153433443Y-107873786D01*
X154010435Y-107634788D01*
X154133570Y-107347175D01*
X170357430Y-107347175D01*
X170480565Y-107634788D01*
X171162734Y-107894707D01*
X171892443Y-107873786D01*
X172469435Y-107634788D01*
X172592570Y-107347175D01*
X171475000Y-106229605D01*
X170357430Y-107347175D01*
X154133570Y-107347175D01*
X153016000Y-106229605D01*
X151898430Y-107347175D01*
X145923000Y-107347175D01*
X145923000Y-105737734D01*
X151171293Y-105737734D01*
X151192214Y-106467443D01*
X151431212Y-107044435D01*
X151718825Y-107167570D01*
X152836395Y-106050000D01*
X153195605Y-106050000D01*
X154313175Y-107167570D01*
X154600788Y-107044435D01*
X154860707Y-106362266D01*
X154842802Y-105737734D01*
X169630293Y-105737734D01*
X169651214Y-106467443D01*
X169890212Y-107044435D01*
X170177825Y-107167570D01*
X171295395Y-106050000D01*
X171654605Y-106050000D01*
X172772175Y-107167570D01*
X173059788Y-107044435D01*
X173319707Y-106362266D01*
X173298786Y-105632557D01*
X173059788Y-105055565D01*
X172772175Y-104932430D01*
X171654605Y-106050000D01*
X171295395Y-106050000D01*
X170177825Y-104932430D01*
X169890212Y-105055565D01*
X169630293Y-105737734D01*
X154842802Y-105737734D01*
X154839786Y-105632557D01*
X154600788Y-105055565D01*
X154313175Y-104932430D01*
X153195605Y-106050000D01*
X152836395Y-106050000D01*
X151718825Y-104932430D01*
X151431212Y-105055565D01*
X151171293Y-105737734D01*
X145923000Y-105737734D01*
X145923000Y-104752825D01*
X151898430Y-104752825D01*
X153016000Y-105870395D01*
X154133570Y-104752825D01*
X170357430Y-104752825D01*
X171475000Y-105870395D01*
X172592570Y-104752825D01*
X172469435Y-104465212D01*
X171787266Y-104205293D01*
X171057557Y-104226214D01*
X170480565Y-104465212D01*
X170357430Y-104752825D01*
X154133570Y-104752825D01*
X154010435Y-104465212D01*
X153328266Y-104205293D01*
X152598557Y-104226214D01*
X152021565Y-104465212D01*
X151898430Y-104752825D01*
X145923000Y-104752825D01*
X145923000Y-103407980D01*
X146144660Y-102964660D01*
X146158490Y-102957745D01*
X183268861Y-102957745D01*
X183342995Y-103203864D01*
X183880223Y-103396965D01*
X184450454Y-103369778D01*
X184851005Y-103203864D01*
X184925139Y-102957745D01*
X184097000Y-102129605D01*
X183268861Y-102957745D01*
X146158490Y-102957745D01*
X146587980Y-102743000D01*
X176784000Y-102743000D01*
X176828289Y-102735027D01*
X179520637Y-101733223D01*
X182650035Y-101733223D01*
X182677222Y-102303454D01*
X182843136Y-102704005D01*
X183089255Y-102778139D01*
X183917395Y-101950000D01*
X184276605Y-101950000D01*
X185104745Y-102778139D01*
X185350864Y-102704005D01*
X185543965Y-102166777D01*
X185516778Y-101596546D01*
X185350864Y-101195995D01*
X185104745Y-101121861D01*
X184276605Y-101950000D01*
X183917395Y-101950000D01*
X183089255Y-101121861D01*
X182843136Y-101195995D01*
X182650035Y-101733223D01*
X179520637Y-101733223D01*
X181646363Y-100942255D01*
X183268861Y-100942255D01*
X184097000Y-101770395D01*
X184925139Y-100942255D01*
X184851005Y-100696136D01*
X184313777Y-100503035D01*
X183743546Y-100530222D01*
X183342995Y-100696136D01*
X183268861Y-100942255D01*
X181646363Y-100942255D01*
X182278767Y-100706942D01*
X184996249Y-100212855D01*
X185553022Y-100769628D01*
G04 #@! TO.N,GNDREF*
G36*
X153209748Y-84410858D02*
X153195605Y-84425000D01*
X153999385Y-85228780D01*
X154459830Y-85804336D01*
X154497739Y-85836248D01*
X154560032Y-85851996D01*
X170181032Y-85724996D01*
X170229553Y-85714934D01*
X170277564Y-85679303D01*
X170584924Y-85310471D01*
X171295395Y-84600000D01*
X171281253Y-84585858D01*
X171460858Y-84406253D01*
X171475000Y-84420395D01*
X171489143Y-84406253D01*
X171668748Y-84585858D01*
X171654605Y-84600000D01*
X172065076Y-85010471D01*
X172622436Y-85679303D01*
X172660976Y-85710451D01*
X172695678Y-85722649D01*
X182804057Y-87695016D01*
X182818136Y-87729005D01*
X183064255Y-87803139D01*
X183112756Y-87754638D01*
X183159231Y-87754468D01*
X183204942Y-87735338D01*
X183234248Y-87707970D01*
X183496129Y-87371265D01*
X183892395Y-86975000D01*
X183878253Y-86960858D01*
X184057858Y-86781253D01*
X184072000Y-86795395D01*
X184086143Y-86781253D01*
X184265748Y-86960858D01*
X184251605Y-86975000D01*
X184888866Y-87612260D01*
X185453680Y-88224142D01*
X185493748Y-88253296D01*
X185532161Y-88264130D01*
X187579000Y-88504935D01*
X187579000Y-95149414D01*
X185517912Y-95634376D01*
X185472817Y-95654918D01*
X185442347Y-95686051D01*
X185136211Y-96131339D01*
X185104745Y-96121861D01*
X184276605Y-96950000D01*
X184290748Y-96964143D01*
X184111143Y-97143748D01*
X184097000Y-97129605D01*
X184082858Y-97143748D01*
X183903253Y-96964143D01*
X183917395Y-96950000D01*
X183089255Y-96121861D01*
X182951250Y-96163430D01*
X182939024Y-96153549D01*
X182891498Y-96139522D01*
X182846903Y-96143389D01*
X173383226Y-98697983D01*
X173172020Y-98697770D01*
X173151250Y-98677000D01*
X171602000Y-98677000D01*
X171602000Y-98696187D01*
X171348000Y-98695931D01*
X171348000Y-98677000D01*
X169798750Y-98677000D01*
X169781399Y-98694351D01*
X154694386Y-98679136D01*
X154692250Y-98677000D01*
X153143000Y-98677000D01*
X153143000Y-98679000D01*
X152889000Y-98679000D01*
X152889000Y-98677000D01*
X151339750Y-98677000D01*
X151337750Y-98679000D01*
X151055606Y-98679000D01*
X149600297Y-97223691D01*
X151181000Y-97223691D01*
X151181000Y-98264250D01*
X151339750Y-98423000D01*
X152889000Y-98423000D01*
X152889000Y-96873750D01*
X153143000Y-96873750D01*
X153143000Y-98423000D01*
X154692250Y-98423000D01*
X154851000Y-98264250D01*
X154851000Y-97223691D01*
X169640000Y-97223691D01*
X169640000Y-98264250D01*
X169798750Y-98423000D01*
X171348000Y-98423000D01*
X171348000Y-96873750D01*
X171602000Y-96873750D01*
X171602000Y-98423000D01*
X173151250Y-98423000D01*
X173310000Y-98264250D01*
X173310000Y-97223691D01*
X173213327Y-96990302D01*
X173034699Y-96811673D01*
X172801310Y-96715000D01*
X171760750Y-96715000D01*
X171602000Y-96873750D01*
X171348000Y-96873750D01*
X171189250Y-96715000D01*
X170148690Y-96715000D01*
X169915301Y-96811673D01*
X169736673Y-96990302D01*
X169640000Y-97223691D01*
X154851000Y-97223691D01*
X154754327Y-96990302D01*
X154575699Y-96811673D01*
X154342310Y-96715000D01*
X153301750Y-96715000D01*
X153143000Y-96873750D01*
X152889000Y-96873750D01*
X152730250Y-96715000D01*
X151689690Y-96715000D01*
X151456301Y-96811673D01*
X151277673Y-96990302D01*
X151181000Y-97223691D01*
X149600297Y-97223691D01*
X148318861Y-95942255D01*
X183268861Y-95942255D01*
X184097000Y-96770395D01*
X184925139Y-95942255D01*
X184851005Y-95696136D01*
X184313777Y-95503035D01*
X183743546Y-95530222D01*
X183342995Y-95696136D01*
X183268861Y-95942255D01*
X148318861Y-95942255D01*
X146939325Y-94562719D01*
X146940955Y-94298159D01*
X147689446Y-94298159D01*
X147775852Y-94554643D01*
X148349336Y-94764458D01*
X148959460Y-94738839D01*
X149404148Y-94554643D01*
X149490554Y-94298159D01*
X148590000Y-93397605D01*
X147689446Y-94298159D01*
X146940955Y-94298159D01*
X146949096Y-92977336D01*
X147043542Y-92977336D01*
X147069161Y-93587460D01*
X147253357Y-94032148D01*
X147509841Y-94118554D01*
X148410395Y-93218000D01*
X148769605Y-93218000D01*
X149670159Y-94118554D01*
X149926643Y-94032148D01*
X150136458Y-93458664D01*
X150110839Y-92848540D01*
X149926643Y-92403852D01*
X149670159Y-92317446D01*
X148769605Y-93218000D01*
X148410395Y-93218000D01*
X147509841Y-92317446D01*
X147253357Y-92403852D01*
X147043542Y-92977336D01*
X146949096Y-92977336D01*
X146959741Y-91250159D01*
X147689446Y-91250159D01*
X147775852Y-91506643D01*
X148288762Y-91694296D01*
X148220540Y-91697161D01*
X147775852Y-91881357D01*
X147689446Y-92137841D01*
X148590000Y-93038395D01*
X149490554Y-92137841D01*
X149404148Y-91881357D01*
X148891238Y-91693704D01*
X148959460Y-91690839D01*
X149404148Y-91506643D01*
X149490554Y-91250159D01*
X148590000Y-90349605D01*
X147689446Y-91250159D01*
X146959741Y-91250159D01*
X146967883Y-89929336D01*
X147043542Y-89929336D01*
X147069161Y-90539460D01*
X147253357Y-90984148D01*
X147509841Y-91070554D01*
X148410395Y-90170000D01*
X148769605Y-90170000D01*
X149670159Y-91070554D01*
X149926643Y-90984148D01*
X150136458Y-90410664D01*
X150110839Y-89800540D01*
X149926643Y-89355852D01*
X149670159Y-89269446D01*
X148769605Y-90170000D01*
X148410395Y-90170000D01*
X147509841Y-89269446D01*
X147253357Y-89355852D01*
X147043542Y-89929336D01*
X146967883Y-89929336D01*
X146973058Y-89089841D01*
X147689446Y-89089841D01*
X148590000Y-89990395D01*
X149490554Y-89089841D01*
X149404148Y-88833357D01*
X148830664Y-88623542D01*
X148220540Y-88649161D01*
X147775852Y-88833357D01*
X147689446Y-89089841D01*
X146973058Y-89089841D01*
X146976558Y-88522109D01*
X147873980Y-87982745D01*
X183243861Y-87982745D01*
X183317995Y-88228864D01*
X183855223Y-88421965D01*
X184425454Y-88394778D01*
X184826005Y-88228864D01*
X184900139Y-87982745D01*
X184072000Y-87154605D01*
X183243861Y-87982745D01*
X147873980Y-87982745D01*
X151449422Y-85833853D01*
X151479973Y-85808176D01*
X151554507Y-85722175D01*
X151898430Y-85722175D01*
X152021565Y-86009788D01*
X152703734Y-86269707D01*
X153433443Y-86248786D01*
X154010435Y-86009788D01*
X154058647Y-85897175D01*
X170357430Y-85897175D01*
X170480565Y-86184788D01*
X171162734Y-86444707D01*
X171892443Y-86423786D01*
X172469435Y-86184788D01*
X172592570Y-85897175D01*
X171475000Y-84779605D01*
X170357430Y-85897175D01*
X154058647Y-85897175D01*
X154133570Y-85722175D01*
X153016000Y-84604605D01*
X151898430Y-85722175D01*
X151554507Y-85722175D01*
X151712509Y-85539866D01*
X151718825Y-85542570D01*
X152836395Y-84425000D01*
X152822253Y-84410858D01*
X153001858Y-84231253D01*
X153016000Y-84245395D01*
X153030143Y-84231253D01*
X153209748Y-84410858D01*
X153209748Y-84410858D01*
G37*
X153209748Y-84410858D02*
X153195605Y-84425000D01*
X153999385Y-85228780D01*
X154459830Y-85804336D01*
X154497739Y-85836248D01*
X154560032Y-85851996D01*
X170181032Y-85724996D01*
X170229553Y-85714934D01*
X170277564Y-85679303D01*
X170584924Y-85310471D01*
X171295395Y-84600000D01*
X171281253Y-84585858D01*
X171460858Y-84406253D01*
X171475000Y-84420395D01*
X171489143Y-84406253D01*
X171668748Y-84585858D01*
X171654605Y-84600000D01*
X172065076Y-85010471D01*
X172622436Y-85679303D01*
X172660976Y-85710451D01*
X172695678Y-85722649D01*
X182804057Y-87695016D01*
X182818136Y-87729005D01*
X183064255Y-87803139D01*
X183112756Y-87754638D01*
X183159231Y-87754468D01*
X183204942Y-87735338D01*
X183234248Y-87707970D01*
X183496129Y-87371265D01*
X183892395Y-86975000D01*
X183878253Y-86960858D01*
X184057858Y-86781253D01*
X184072000Y-86795395D01*
X184086143Y-86781253D01*
X184265748Y-86960858D01*
X184251605Y-86975000D01*
X184888866Y-87612260D01*
X185453680Y-88224142D01*
X185493748Y-88253296D01*
X185532161Y-88264130D01*
X187579000Y-88504935D01*
X187579000Y-95149414D01*
X185517912Y-95634376D01*
X185472817Y-95654918D01*
X185442347Y-95686051D01*
X185136211Y-96131339D01*
X185104745Y-96121861D01*
X184276605Y-96950000D01*
X184290748Y-96964143D01*
X184111143Y-97143748D01*
X184097000Y-97129605D01*
X184082858Y-97143748D01*
X183903253Y-96964143D01*
X183917395Y-96950000D01*
X183089255Y-96121861D01*
X182951250Y-96163430D01*
X182939024Y-96153549D01*
X182891498Y-96139522D01*
X182846903Y-96143389D01*
X173383226Y-98697983D01*
X173172020Y-98697770D01*
X173151250Y-98677000D01*
X171602000Y-98677000D01*
X171602000Y-98696187D01*
X171348000Y-98695931D01*
X171348000Y-98677000D01*
X169798750Y-98677000D01*
X169781399Y-98694351D01*
X154694386Y-98679136D01*
X154692250Y-98677000D01*
X153143000Y-98677000D01*
X153143000Y-98679000D01*
X152889000Y-98679000D01*
X152889000Y-98677000D01*
X151339750Y-98677000D01*
X151337750Y-98679000D01*
X151055606Y-98679000D01*
X149600297Y-97223691D01*
X151181000Y-97223691D01*
X151181000Y-98264250D01*
X151339750Y-98423000D01*
X152889000Y-98423000D01*
X152889000Y-96873750D01*
X153143000Y-96873750D01*
X153143000Y-98423000D01*
X154692250Y-98423000D01*
X154851000Y-98264250D01*
X154851000Y-97223691D01*
X169640000Y-97223691D01*
X169640000Y-98264250D01*
X169798750Y-98423000D01*
X171348000Y-98423000D01*
X171348000Y-96873750D01*
X171602000Y-96873750D01*
X171602000Y-98423000D01*
X173151250Y-98423000D01*
X173310000Y-98264250D01*
X173310000Y-97223691D01*
X173213327Y-96990302D01*
X173034699Y-96811673D01*
X172801310Y-96715000D01*
X171760750Y-96715000D01*
X171602000Y-96873750D01*
X171348000Y-96873750D01*
X171189250Y-96715000D01*
X170148690Y-96715000D01*
X169915301Y-96811673D01*
X169736673Y-96990302D01*
X169640000Y-97223691D01*
X154851000Y-97223691D01*
X154754327Y-96990302D01*
X154575699Y-96811673D01*
X154342310Y-96715000D01*
X153301750Y-96715000D01*
X153143000Y-96873750D01*
X152889000Y-96873750D01*
X152730250Y-96715000D01*
X151689690Y-96715000D01*
X151456301Y-96811673D01*
X151277673Y-96990302D01*
X151181000Y-97223691D01*
X149600297Y-97223691D01*
X148318861Y-95942255D01*
X183268861Y-95942255D01*
X184097000Y-96770395D01*
X184925139Y-95942255D01*
X184851005Y-95696136D01*
X184313777Y-95503035D01*
X183743546Y-95530222D01*
X183342995Y-95696136D01*
X183268861Y-95942255D01*
X148318861Y-95942255D01*
X146939325Y-94562719D01*
X146940955Y-94298159D01*
X147689446Y-94298159D01*
X147775852Y-94554643D01*
X148349336Y-94764458D01*
X148959460Y-94738839D01*
X149404148Y-94554643D01*
X149490554Y-94298159D01*
X148590000Y-93397605D01*
X147689446Y-94298159D01*
X146940955Y-94298159D01*
X146949096Y-92977336D01*
X147043542Y-92977336D01*
X147069161Y-93587460D01*
X147253357Y-94032148D01*
X147509841Y-94118554D01*
X148410395Y-93218000D01*
X148769605Y-93218000D01*
X149670159Y-94118554D01*
X149926643Y-94032148D01*
X150136458Y-93458664D01*
X150110839Y-92848540D01*
X149926643Y-92403852D01*
X149670159Y-92317446D01*
X148769605Y-93218000D01*
X148410395Y-93218000D01*
X147509841Y-92317446D01*
X147253357Y-92403852D01*
X147043542Y-92977336D01*
X146949096Y-92977336D01*
X146959741Y-91250159D01*
X147689446Y-91250159D01*
X147775852Y-91506643D01*
X148288762Y-91694296D01*
X148220540Y-91697161D01*
X147775852Y-91881357D01*
X147689446Y-92137841D01*
X148590000Y-93038395D01*
X149490554Y-92137841D01*
X149404148Y-91881357D01*
X148891238Y-91693704D01*
X148959460Y-91690839D01*
X149404148Y-91506643D01*
X149490554Y-91250159D01*
X148590000Y-90349605D01*
X147689446Y-91250159D01*
X146959741Y-91250159D01*
X146967883Y-89929336D01*
X147043542Y-89929336D01*
X147069161Y-90539460D01*
X147253357Y-90984148D01*
X147509841Y-91070554D01*
X148410395Y-90170000D01*
X148769605Y-90170000D01*
X149670159Y-91070554D01*
X149926643Y-90984148D01*
X150136458Y-90410664D01*
X150110839Y-89800540D01*
X149926643Y-89355852D01*
X149670159Y-89269446D01*
X148769605Y-90170000D01*
X148410395Y-90170000D01*
X147509841Y-89269446D01*
X147253357Y-89355852D01*
X147043542Y-89929336D01*
X146967883Y-89929336D01*
X146973058Y-89089841D01*
X147689446Y-89089841D01*
X148590000Y-89990395D01*
X149490554Y-89089841D01*
X149404148Y-88833357D01*
X148830664Y-88623542D01*
X148220540Y-88649161D01*
X147775852Y-88833357D01*
X147689446Y-89089841D01*
X146973058Y-89089841D01*
X146976558Y-88522109D01*
X147873980Y-87982745D01*
X183243861Y-87982745D01*
X183317995Y-88228864D01*
X183855223Y-88421965D01*
X184425454Y-88394778D01*
X184826005Y-88228864D01*
X184900139Y-87982745D01*
X184072000Y-87154605D01*
X183243861Y-87982745D01*
X147873980Y-87982745D01*
X151449422Y-85833853D01*
X151479973Y-85808176D01*
X151554507Y-85722175D01*
X151898430Y-85722175D01*
X152021565Y-86009788D01*
X152703734Y-86269707D01*
X153433443Y-86248786D01*
X154010435Y-86009788D01*
X154058647Y-85897175D01*
X170357430Y-85897175D01*
X170480565Y-86184788D01*
X171162734Y-86444707D01*
X171892443Y-86423786D01*
X172469435Y-86184788D01*
X172592570Y-85897175D01*
X171475000Y-84779605D01*
X170357430Y-85897175D01*
X154058647Y-85897175D01*
X154133570Y-85722175D01*
X153016000Y-84604605D01*
X151898430Y-85722175D01*
X151554507Y-85722175D01*
X151712509Y-85539866D01*
X151718825Y-85542570D01*
X152836395Y-84425000D01*
X152822253Y-84410858D01*
X153001858Y-84231253D01*
X153016000Y-84245395D01*
X153030143Y-84231253D01*
X153209748Y-84410858D01*
G36*
X202810745Y-91601139D02*
X202924084Y-91567000D01*
X210302289Y-91567000D01*
X216896689Y-92581523D01*
X216916000Y-92583000D01*
X218820878Y-92583000D01*
X218886845Y-92708000D01*
X220080000Y-92708000D01*
X220080000Y-92688000D01*
X220334000Y-92688000D01*
X220334000Y-92708000D01*
X220354000Y-92708000D01*
X220354000Y-92962000D01*
X220334000Y-92962000D01*
X220334000Y-95248000D01*
X220354000Y-95248000D01*
X220354000Y-95502000D01*
X220334000Y-95502000D01*
X220334000Y-96901000D01*
X220080000Y-96901000D01*
X220080000Y-95502000D01*
X218886845Y-95502000D01*
X218765524Y-95731890D01*
X218935355Y-96141924D01*
X219325642Y-96570183D01*
X219484954Y-96645000D01*
X219325642Y-96719817D01*
X219160524Y-96901000D01*
X210704460Y-96901000D01*
X209534641Y-95735750D01*
X211165000Y-95735750D01*
X211165000Y-96376309D01*
X211261673Y-96609698D01*
X211440301Y-96788327D01*
X211673690Y-96885000D01*
X212314250Y-96885000D01*
X212473000Y-96726250D01*
X212473000Y-95577000D01*
X212727000Y-95577000D01*
X212727000Y-96726250D01*
X212885750Y-96885000D01*
X213526310Y-96885000D01*
X213759699Y-96788327D01*
X213938327Y-96609698D01*
X214035000Y-96376309D01*
X214035000Y-95735750D01*
X213876250Y-95577000D01*
X212727000Y-95577000D01*
X212473000Y-95577000D01*
X211323750Y-95577000D01*
X211165000Y-95735750D01*
X209534641Y-95735750D01*
X209461627Y-95663022D01*
X209420371Y-95635572D01*
X209371860Y-95626000D01*
X203081168Y-95632918D01*
X203079250Y-95631000D01*
X201930000Y-95631000D01*
X201930000Y-95634184D01*
X201676000Y-95634463D01*
X201676000Y-95631000D01*
X200526750Y-95631000D01*
X200522018Y-95635732D01*
X200334874Y-95635938D01*
X199366404Y-94577691D01*
X200368000Y-94577691D01*
X200368000Y-95218250D01*
X200526750Y-95377000D01*
X201676000Y-95377000D01*
X201676000Y-94227750D01*
X201930000Y-94227750D01*
X201930000Y-95377000D01*
X203079250Y-95377000D01*
X203238000Y-95218250D01*
X203238000Y-94577691D01*
X203215633Y-94523691D01*
X211165000Y-94523691D01*
X211165000Y-95164250D01*
X211323750Y-95323000D01*
X212473000Y-95323000D01*
X212473000Y-94173750D01*
X212727000Y-94173750D01*
X212727000Y-95323000D01*
X213876250Y-95323000D01*
X214035000Y-95164250D01*
X214035000Y-94523691D01*
X213938327Y-94290302D01*
X213759699Y-94111673D01*
X213526310Y-94015000D01*
X212885750Y-94015000D01*
X212727000Y-94173750D01*
X212473000Y-94173750D01*
X212314250Y-94015000D01*
X211673690Y-94015000D01*
X211440301Y-94111673D01*
X211261673Y-94290302D01*
X211165000Y-94523691D01*
X203215633Y-94523691D01*
X203141327Y-94344302D01*
X202962699Y-94165673D01*
X202729310Y-94069000D01*
X202088750Y-94069000D01*
X201930000Y-94227750D01*
X201676000Y-94227750D01*
X201517250Y-94069000D01*
X200876690Y-94069000D01*
X200643301Y-94165673D01*
X200464673Y-94344302D01*
X200368000Y-94577691D01*
X199366404Y-94577691D01*
X198098167Y-93191890D01*
X218765524Y-93191890D01*
X218935355Y-93601924D01*
X219325642Y-94030183D01*
X219484954Y-94105000D01*
X219325642Y-94179817D01*
X218935355Y-94608076D01*
X218765524Y-95018110D01*
X218886845Y-95248000D01*
X220080000Y-95248000D01*
X220080000Y-92962000D01*
X218886845Y-92962000D01*
X218765524Y-93191890D01*
X198098167Y-93191890D01*
X197723544Y-92782541D01*
X201033448Y-91975248D01*
X201048995Y-92026864D01*
X201586223Y-92219965D01*
X202156454Y-92192778D01*
X202557005Y-92026864D01*
X202631139Y-91780745D01*
X202474231Y-91623837D01*
X202707263Y-91567000D01*
X202776606Y-91567000D01*
X202810745Y-91601139D01*
X202810745Y-91601139D01*
G37*
X202810745Y-91601139D02*
X202924084Y-91567000D01*
X210302289Y-91567000D01*
X216896689Y-92581523D01*
X216916000Y-92583000D01*
X218820878Y-92583000D01*
X218886845Y-92708000D01*
X220080000Y-92708000D01*
X220080000Y-92688000D01*
X220334000Y-92688000D01*
X220334000Y-92708000D01*
X220354000Y-92708000D01*
X220354000Y-92962000D01*
X220334000Y-92962000D01*
X220334000Y-95248000D01*
X220354000Y-95248000D01*
X220354000Y-95502000D01*
X220334000Y-95502000D01*
X220334000Y-96901000D01*
X220080000Y-96901000D01*
X220080000Y-95502000D01*
X218886845Y-95502000D01*
X218765524Y-95731890D01*
X218935355Y-96141924D01*
X219325642Y-96570183D01*
X219484954Y-96645000D01*
X219325642Y-96719817D01*
X219160524Y-96901000D01*
X210704460Y-96901000D01*
X209534641Y-95735750D01*
X211165000Y-95735750D01*
X211165000Y-96376309D01*
X211261673Y-96609698D01*
X211440301Y-96788327D01*
X211673690Y-96885000D01*
X212314250Y-96885000D01*
X212473000Y-96726250D01*
X212473000Y-95577000D01*
X212727000Y-95577000D01*
X212727000Y-96726250D01*
X212885750Y-96885000D01*
X213526310Y-96885000D01*
X213759699Y-96788327D01*
X213938327Y-96609698D01*
X214035000Y-96376309D01*
X214035000Y-95735750D01*
X213876250Y-95577000D01*
X212727000Y-95577000D01*
X212473000Y-95577000D01*
X211323750Y-95577000D01*
X211165000Y-95735750D01*
X209534641Y-95735750D01*
X209461627Y-95663022D01*
X209420371Y-95635572D01*
X209371860Y-95626000D01*
X203081168Y-95632918D01*
X203079250Y-95631000D01*
X201930000Y-95631000D01*
X201930000Y-95634184D01*
X201676000Y-95634463D01*
X201676000Y-95631000D01*
X200526750Y-95631000D01*
X200522018Y-95635732D01*
X200334874Y-95635938D01*
X199366404Y-94577691D01*
X200368000Y-94577691D01*
X200368000Y-95218250D01*
X200526750Y-95377000D01*
X201676000Y-95377000D01*
X201676000Y-94227750D01*
X201930000Y-94227750D01*
X201930000Y-95377000D01*
X203079250Y-95377000D01*
X203238000Y-95218250D01*
X203238000Y-94577691D01*
X203215633Y-94523691D01*
X211165000Y-94523691D01*
X211165000Y-95164250D01*
X211323750Y-95323000D01*
X212473000Y-95323000D01*
X212473000Y-94173750D01*
X212727000Y-94173750D01*
X212727000Y-95323000D01*
X213876250Y-95323000D01*
X214035000Y-95164250D01*
X214035000Y-94523691D01*
X213938327Y-94290302D01*
X213759699Y-94111673D01*
X213526310Y-94015000D01*
X212885750Y-94015000D01*
X212727000Y-94173750D01*
X212473000Y-94173750D01*
X212314250Y-94015000D01*
X211673690Y-94015000D01*
X211440301Y-94111673D01*
X211261673Y-94290302D01*
X211165000Y-94523691D01*
X203215633Y-94523691D01*
X203141327Y-94344302D01*
X202962699Y-94165673D01*
X202729310Y-94069000D01*
X202088750Y-94069000D01*
X201930000Y-94227750D01*
X201676000Y-94227750D01*
X201517250Y-94069000D01*
X200876690Y-94069000D01*
X200643301Y-94165673D01*
X200464673Y-94344302D01*
X200368000Y-94577691D01*
X199366404Y-94577691D01*
X198098167Y-93191890D01*
X218765524Y-93191890D01*
X218935355Y-93601924D01*
X219325642Y-94030183D01*
X219484954Y-94105000D01*
X219325642Y-94179817D01*
X218935355Y-94608076D01*
X218765524Y-95018110D01*
X218886845Y-95248000D01*
X220080000Y-95248000D01*
X220080000Y-92962000D01*
X218886845Y-92962000D01*
X218765524Y-93191890D01*
X198098167Y-93191890D01*
X197723544Y-92782541D01*
X201033448Y-91975248D01*
X201048995Y-92026864D01*
X201586223Y-92219965D01*
X202156454Y-92192778D01*
X202557005Y-92026864D01*
X202631139Y-91780745D01*
X202474231Y-91623837D01*
X202707263Y-91567000D01*
X202776606Y-91567000D01*
X202810745Y-91601139D01*
G04 #@! TO.N,Net-(C1-Pad1)*
G36*
X178221327Y-75534103D02*
X178959266Y-76518022D01*
X179715269Y-78282028D01*
X179756664Y-78334242D01*
X182169664Y-80112242D01*
X182235260Y-80136626D01*
X185465566Y-80385111D01*
X186049939Y-81553857D01*
X185811093Y-82986930D01*
X184877885Y-83686837D01*
X181395865Y-83189405D01*
X181005508Y-82982745D01*
X183243861Y-82982745D01*
X183317995Y-83228864D01*
X183855223Y-83421965D01*
X184425454Y-83394778D01*
X184826005Y-83228864D01*
X184900139Y-82982745D01*
X184072000Y-82154605D01*
X183243861Y-82982745D01*
X181005508Y-82982745D01*
X178692521Y-81758223D01*
X182625035Y-81758223D01*
X182652222Y-82328454D01*
X182818136Y-82729005D01*
X183064255Y-82803139D01*
X183892395Y-81975000D01*
X184251605Y-81975000D01*
X185079745Y-82803139D01*
X185325864Y-82729005D01*
X185518965Y-82191777D01*
X185491778Y-81621546D01*
X185325864Y-81220995D01*
X185079745Y-81146861D01*
X184251605Y-81975000D01*
X183892395Y-81975000D01*
X183064255Y-81146861D01*
X182818136Y-81220995D01*
X182625035Y-81758223D01*
X178692521Y-81758223D01*
X177198471Y-80967255D01*
X183243861Y-80967255D01*
X184072000Y-81795395D01*
X184900139Y-80967255D01*
X184826005Y-80721136D01*
X184288777Y-80528035D01*
X183718546Y-80555222D01*
X183317995Y-80721136D01*
X183243861Y-80967255D01*
X177198471Y-80967255D01*
X177097422Y-80913759D01*
X177038000Y-80899000D01*
X146587980Y-80899000D01*
X146398660Y-80804340D01*
X146294630Y-80596280D01*
X146177000Y-80243390D01*
X146177000Y-77210750D01*
X151181000Y-77210750D01*
X151181000Y-78251309D01*
X151277673Y-78484698D01*
X151456301Y-78663327D01*
X151689690Y-78760000D01*
X152730250Y-78760000D01*
X152889000Y-78601250D01*
X152889000Y-77052000D01*
X153143000Y-77052000D01*
X153143000Y-78601250D01*
X153301750Y-78760000D01*
X154342310Y-78760000D01*
X154575699Y-78663327D01*
X154754327Y-78484698D01*
X154851000Y-78251309D01*
X154851000Y-77385750D01*
X169640000Y-77385750D01*
X169640000Y-78426309D01*
X169736673Y-78659698D01*
X169915301Y-78838327D01*
X170148690Y-78935000D01*
X171189250Y-78935000D01*
X171348000Y-78776250D01*
X171348000Y-77227000D01*
X171602000Y-77227000D01*
X171602000Y-78776250D01*
X171760750Y-78935000D01*
X172801310Y-78935000D01*
X173034699Y-78838327D01*
X173213327Y-78659698D01*
X173310000Y-78426309D01*
X173310000Y-77385750D01*
X173151250Y-77227000D01*
X171602000Y-77227000D01*
X171348000Y-77227000D01*
X169798750Y-77227000D01*
X169640000Y-77385750D01*
X154851000Y-77385750D01*
X154851000Y-77210750D01*
X154692250Y-77052000D01*
X153143000Y-77052000D01*
X152889000Y-77052000D01*
X151339750Y-77052000D01*
X151181000Y-77210750D01*
X146177000Y-77210750D01*
X146177000Y-76220610D01*
X146384306Y-75598691D01*
X151181000Y-75598691D01*
X151181000Y-76639250D01*
X151339750Y-76798000D01*
X152889000Y-76798000D01*
X152889000Y-75248750D01*
X153143000Y-75248750D01*
X153143000Y-76798000D01*
X154692250Y-76798000D01*
X154851000Y-76639250D01*
X154851000Y-75773691D01*
X169640000Y-75773691D01*
X169640000Y-76814250D01*
X169798750Y-76973000D01*
X171348000Y-76973000D01*
X171348000Y-75423750D01*
X171602000Y-75423750D01*
X171602000Y-76973000D01*
X173151250Y-76973000D01*
X173310000Y-76814250D01*
X173310000Y-75773691D01*
X173213327Y-75540302D01*
X173034699Y-75361673D01*
X172801310Y-75265000D01*
X171760750Y-75265000D01*
X171602000Y-75423750D01*
X171348000Y-75423750D01*
X171189250Y-75265000D01*
X170148690Y-75265000D01*
X169915301Y-75361673D01*
X169736673Y-75540302D01*
X169640000Y-75773691D01*
X154851000Y-75773691D01*
X154851000Y-75598691D01*
X154754327Y-75365302D01*
X154575699Y-75186673D01*
X154342310Y-75090000D01*
X153301750Y-75090000D01*
X153143000Y-75248750D01*
X152889000Y-75248750D01*
X152730250Y-75090000D01*
X151689690Y-75090000D01*
X151456301Y-75186673D01*
X151277673Y-75365302D01*
X151181000Y-75598691D01*
X146384306Y-75598691D01*
X146415002Y-75506604D01*
X146887232Y-75034374D01*
X147349980Y-74803000D01*
X177002822Y-74803000D01*
X178221327Y-75534103D01*
X178221327Y-75534103D01*
G37*
X178221327Y-75534103D02*
X178959266Y-76518022D01*
X179715269Y-78282028D01*
X179756664Y-78334242D01*
X182169664Y-80112242D01*
X182235260Y-80136626D01*
X185465566Y-80385111D01*
X186049939Y-81553857D01*
X185811093Y-82986930D01*
X184877885Y-83686837D01*
X181395865Y-83189405D01*
X181005508Y-82982745D01*
X183243861Y-82982745D01*
X183317995Y-83228864D01*
X183855223Y-83421965D01*
X184425454Y-83394778D01*
X184826005Y-83228864D01*
X184900139Y-82982745D01*
X184072000Y-82154605D01*
X183243861Y-82982745D01*
X181005508Y-82982745D01*
X178692521Y-81758223D01*
X182625035Y-81758223D01*
X182652222Y-82328454D01*
X182818136Y-82729005D01*
X183064255Y-82803139D01*
X183892395Y-81975000D01*
X184251605Y-81975000D01*
X185079745Y-82803139D01*
X185325864Y-82729005D01*
X185518965Y-82191777D01*
X185491778Y-81621546D01*
X185325864Y-81220995D01*
X185079745Y-81146861D01*
X184251605Y-81975000D01*
X183892395Y-81975000D01*
X183064255Y-81146861D01*
X182818136Y-81220995D01*
X182625035Y-81758223D01*
X178692521Y-81758223D01*
X177198471Y-80967255D01*
X183243861Y-80967255D01*
X184072000Y-81795395D01*
X184900139Y-80967255D01*
X184826005Y-80721136D01*
X184288777Y-80528035D01*
X183718546Y-80555222D01*
X183317995Y-80721136D01*
X183243861Y-80967255D01*
X177198471Y-80967255D01*
X177097422Y-80913759D01*
X177038000Y-80899000D01*
X146587980Y-80899000D01*
X146398660Y-80804340D01*
X146294630Y-80596280D01*
X146177000Y-80243390D01*
X146177000Y-77210750D01*
X151181000Y-77210750D01*
X151181000Y-78251309D01*
X151277673Y-78484698D01*
X151456301Y-78663327D01*
X151689690Y-78760000D01*
X152730250Y-78760000D01*
X152889000Y-78601250D01*
X152889000Y-77052000D01*
X153143000Y-77052000D01*
X153143000Y-78601250D01*
X153301750Y-78760000D01*
X154342310Y-78760000D01*
X154575699Y-78663327D01*
X154754327Y-78484698D01*
X154851000Y-78251309D01*
X154851000Y-77385750D01*
X169640000Y-77385750D01*
X169640000Y-78426309D01*
X169736673Y-78659698D01*
X169915301Y-78838327D01*
X170148690Y-78935000D01*
X171189250Y-78935000D01*
X171348000Y-78776250D01*
X171348000Y-77227000D01*
X171602000Y-77227000D01*
X171602000Y-78776250D01*
X171760750Y-78935000D01*
X172801310Y-78935000D01*
X173034699Y-78838327D01*
X173213327Y-78659698D01*
X173310000Y-78426309D01*
X173310000Y-77385750D01*
X173151250Y-77227000D01*
X171602000Y-77227000D01*
X171348000Y-77227000D01*
X169798750Y-77227000D01*
X169640000Y-77385750D01*
X154851000Y-77385750D01*
X154851000Y-77210750D01*
X154692250Y-77052000D01*
X153143000Y-77052000D01*
X152889000Y-77052000D01*
X151339750Y-77052000D01*
X151181000Y-77210750D01*
X146177000Y-77210750D01*
X146177000Y-76220610D01*
X146384306Y-75598691D01*
X151181000Y-75598691D01*
X151181000Y-76639250D01*
X151339750Y-76798000D01*
X152889000Y-76798000D01*
X152889000Y-75248750D01*
X153143000Y-75248750D01*
X153143000Y-76798000D01*
X154692250Y-76798000D01*
X154851000Y-76639250D01*
X154851000Y-75773691D01*
X169640000Y-75773691D01*
X169640000Y-76814250D01*
X169798750Y-76973000D01*
X171348000Y-76973000D01*
X171348000Y-75423750D01*
X171602000Y-75423750D01*
X171602000Y-76973000D01*
X173151250Y-76973000D01*
X173310000Y-76814250D01*
X173310000Y-75773691D01*
X173213327Y-75540302D01*
X173034699Y-75361673D01*
X172801310Y-75265000D01*
X171760750Y-75265000D01*
X171602000Y-75423750D01*
X171348000Y-75423750D01*
X171189250Y-75265000D01*
X170148690Y-75265000D01*
X169915301Y-75361673D01*
X169736673Y-75540302D01*
X169640000Y-75773691D01*
X154851000Y-75773691D01*
X154851000Y-75598691D01*
X154754327Y-75365302D01*
X154575699Y-75186673D01*
X154342310Y-75090000D01*
X153301750Y-75090000D01*
X153143000Y-75248750D01*
X152889000Y-75248750D01*
X152730250Y-75090000D01*
X151689690Y-75090000D01*
X151456301Y-75186673D01*
X151277673Y-75365302D01*
X151181000Y-75598691D01*
X146384306Y-75598691D01*
X146415002Y-75506604D01*
X146887232Y-75034374D01*
X147349980Y-74803000D01*
X177002822Y-74803000D01*
X178221327Y-75534103D01*
G04 #@! TD*
M02*
