G04 #@! TF.GenerationSoftware,KiCad,Pcbnew,(5.0.1-3-g963ef8bb5)*
G04 #@! TF.CreationDate,2018-11-16T01:15:12-08:00*
G04 #@! TF.ProjectId,eurorack-psu,6575726F7261636B2D7073752E6B6963,rev?*
G04 #@! TF.SameCoordinates,Original*
G04 #@! TF.FileFunction,Copper,L1,Top,Signal*
G04 #@! TF.FilePolarity,Positive*
%FSLAX46Y46*%
G04 Gerber Fmt 4.6, Leading zero omitted, Abs format (unit mm)*
G04 Created by KiCad (PCBNEW (5.0.1-3-g963ef8bb5)) date Friday, November 16, 2018 at 01:15:12 AM*
%MOMM*%
%LPD*%
G01*
G04 APERTURE LIST*
G04 #@! TA.AperFunction,ComponentPad*
%ADD10C,1.800000*%
G04 #@! TD*
G04 #@! TA.AperFunction,ComponentPad*
%ADD11R,2.400000X2.400000*%
G04 #@! TD*
G04 #@! TA.AperFunction,ComponentPad*
%ADD12C,2.400000*%
G04 #@! TD*
G04 #@! TA.AperFunction,ComponentPad*
%ADD13R,1.600000X1.600000*%
G04 #@! TD*
G04 #@! TA.AperFunction,ComponentPad*
%ADD14O,1.600000X1.600000*%
G04 #@! TD*
G04 #@! TA.AperFunction,ComponentPad*
%ADD15O,2.540000X2.032000*%
G04 #@! TD*
G04 #@! TA.AperFunction,ComponentPad*
%ADD16C,1.600000*%
G04 #@! TD*
G04 #@! TA.AperFunction,ComponentPad*
%ADD17O,2.400000X2.400000*%
G04 #@! TD*
G04 #@! TA.AperFunction,ComponentPad*
%ADD18R,1.800000X1.800000*%
G04 #@! TD*
G04 #@! TA.AperFunction,ComponentPad*
%ADD19C,1.440000*%
G04 #@! TD*
G04 #@! TA.AperFunction,ComponentPad*
%ADD20O,1.700000X1.700000*%
G04 #@! TD*
G04 #@! TA.AperFunction,ComponentPad*
%ADD21R,1.700000X1.700000*%
G04 #@! TD*
G04 #@! TA.AperFunction,ViaPad*
%ADD22C,1.524000*%
G04 #@! TD*
G04 APERTURE END LIST*
D10*
G04 #@! TO.P,TR1,5*
G04 #@! TO.N,Net-(D2-Pad1)*
X132080000Y-91694000D03*
G04 #@! TO.P,TR1,6*
G04 #@! TO.N,GNDREF*
X148590000Y-90170000D03*
G04 #@! TO.P,TR1,7*
X148590000Y-93218000D03*
G04 #@! TO.P,TR1,8*
G04 #@! TO.N,Net-(D1-Pad1)*
X144272000Y-91694000D03*
G04 #@! TD*
D11*
G04 #@! TO.P,C3,1*
G04 #@! TO.N,Net-(C1-Pad1)*
X171475000Y-77100000D03*
D12*
G04 #@! TO.P,C3,2*
G04 #@! TO.N,GNDREF*
X171475000Y-84600000D03*
G04 #@! TD*
D13*
G04 #@! TO.P,D5,1*
G04 #@! TO.N,Net-(C1-Pad1)*
X197739000Y-71374000D03*
D14*
G04 #@! TO.P,D5,2*
G04 #@! TO.N,+12V*
X197739000Y-73914000D03*
G04 #@! TD*
D15*
G04 #@! TO.P,U1,2*
G04 #@! TO.N,+12V*
X188747000Y-73920000D03*
G04 #@! TO.P,U1,3*
G04 #@! TO.N,Net-(C1-Pad1)*
X188747000Y-71380000D03*
G04 #@! TO.P,U1,1*
G04 #@! TO.N,Net-(C7-Pad1)*
X188747000Y-76460000D03*
G04 #@! TD*
D13*
G04 #@! TO.P,C8,1*
G04 #@! TO.N,GNDREF*
X201803000Y-95504000D03*
D16*
G04 #@! TO.P,C8,2*
G04 #@! TO.N,Net-(C8-Pad2)*
X201803000Y-97504000D03*
G04 #@! TD*
D17*
G04 #@! TO.P,D4,2*
G04 #@! TO.N,Net-(D2-Pad1)*
X135636000Y-89662000D03*
D11*
G04 #@! TO.P,D4,1*
G04 #@! TO.N,Net-(C1-Pad1)*
X135636000Y-84582000D03*
G04 #@! TD*
D12*
G04 #@! TO.P,C2,2*
G04 #@! TO.N,Net-(C2-Pad2)*
X153016000Y-106050000D03*
D11*
G04 #@! TO.P,C2,1*
G04 #@! TO.N,GNDREF*
X153016000Y-98550000D03*
G04 #@! TD*
G04 #@! TO.P,C4,1*
G04 #@! TO.N,GNDREF*
X171475000Y-98550000D03*
D12*
G04 #@! TO.P,C4,2*
G04 #@! TO.N,Net-(C2-Pad2)*
X171475000Y-106050000D03*
G04 #@! TD*
G04 #@! TO.P,C1,2*
G04 #@! TO.N,GNDREF*
X153016000Y-84425000D03*
D11*
G04 #@! TO.P,C1,1*
G04 #@! TO.N,Net-(C1-Pad1)*
X153016000Y-76925000D03*
G04 #@! TD*
D16*
G04 #@! TO.P,C5,2*
G04 #@! TO.N,GNDREF*
X184072000Y-86975000D03*
G04 #@! TO.P,C5,1*
G04 #@! TO.N,Net-(C1-Pad1)*
X184072000Y-81975000D03*
G04 #@! TD*
G04 #@! TO.P,C6,1*
G04 #@! TO.N,GNDREF*
X184097000Y-96950000D03*
G04 #@! TO.P,C6,2*
G04 #@! TO.N,Net-(C2-Pad2)*
X184097000Y-101950000D03*
G04 #@! TD*
G04 #@! TO.P,C7,2*
G04 #@! TO.N,GNDREF*
X201803000Y-90773000D03*
D13*
G04 #@! TO.P,C7,1*
G04 #@! TO.N,Net-(C7-Pad1)*
X201803000Y-88773000D03*
G04 #@! TD*
D16*
G04 #@! TO.P,C9,2*
G04 #@! TO.N,GNDREF*
X212472000Y-88150000D03*
D13*
G04 #@! TO.P,C9,1*
G04 #@! TO.N,+12V*
X212472000Y-83150000D03*
G04 #@! TD*
D16*
G04 #@! TO.P,C10,2*
G04 #@! TO.N,-12V*
X212600000Y-100450000D03*
D13*
G04 #@! TO.P,C10,1*
G04 #@! TO.N,GNDREF*
X212600000Y-95450000D03*
G04 #@! TD*
D17*
G04 #@! TO.P,D1,2*
G04 #@! TO.N,Net-(C2-Pad2)*
X140716000Y-99314000D03*
D11*
G04 #@! TO.P,D1,1*
G04 #@! TO.N,Net-(D1-Pad1)*
X140716000Y-94234000D03*
G04 #@! TD*
G04 #@! TO.P,D2,1*
G04 #@! TO.N,Net-(D2-Pad1)*
X135636000Y-94234000D03*
D17*
G04 #@! TO.P,D2,2*
G04 #@! TO.N,Net-(C2-Pad2)*
X135636000Y-99314000D03*
G04 #@! TD*
D11*
G04 #@! TO.P,D3,1*
G04 #@! TO.N,Net-(C1-Pad1)*
X140716000Y-84582000D03*
D17*
G04 #@! TO.P,D3,2*
G04 #@! TO.N,Net-(D1-Pad1)*
X140716000Y-89662000D03*
G04 #@! TD*
D13*
G04 #@! TO.P,D6,1*
G04 #@! TO.N,-12V*
X184658000Y-112776000D03*
D14*
G04 #@! TO.P,D6,2*
G04 #@! TO.N,Net-(C2-Pad2)*
X184658000Y-110236000D03*
G04 #@! TD*
D10*
G04 #@! TO.P,D7,2*
G04 #@! TO.N,Net-(D7-Pad2)*
X207137000Y-84455000D03*
D18*
G04 #@! TO.P,D7,1*
G04 #@! TO.N,GNDREF*
X207137000Y-86995000D03*
G04 #@! TD*
G04 #@! TO.P,D8,1*
G04 #@! TO.N,Net-(D8-Pad1)*
X207264000Y-102108000D03*
D10*
G04 #@! TO.P,D8,2*
G04 #@! TO.N,GNDREF*
X207264000Y-99568000D03*
G04 #@! TD*
D19*
G04 #@! TO.P,RV2,3*
G04 #@! TO.N,GNDREF*
X188468000Y-86487000D03*
G04 #@! TO.P,RV2,2*
X191008000Y-83947000D03*
G04 #@! TO.P,RV2,1*
G04 #@! TO.N,Net-(R1-Pad2)*
X193548000Y-86487000D03*
G04 #@! TD*
G04 #@! TO.P,RV3,3*
G04 #@! TO.N,Net-(R2-Pad1)*
X193577000Y-97409000D03*
G04 #@! TO.P,RV3,2*
G04 #@! TO.N,GNDREF*
X191037000Y-99949000D03*
G04 #@! TO.P,RV3,1*
X188497000Y-97409000D03*
G04 #@! TD*
D15*
G04 #@! TO.P,U2,2*
G04 #@! TO.N,Net-(C2-Pad2)*
X193147000Y-112172000D03*
G04 #@! TO.P,U2,3*
G04 #@! TO.N,-12V*
X193147000Y-114712000D03*
G04 #@! TO.P,U2,1*
G04 #@! TO.N,Net-(C8-Pad2)*
X193147000Y-109632000D03*
G04 #@! TD*
D20*
G04 #@! TO.P,J1,16*
G04 #@! TO.N,-12V*
X220207000Y-100455000D03*
G04 #@! TO.P,J1,15*
X222747000Y-100455000D03*
G04 #@! TO.P,J1,14*
G04 #@! TO.N,GNDREF*
X220207000Y-97915000D03*
G04 #@! TO.P,J1,13*
X222747000Y-97915000D03*
G04 #@! TO.P,J1,12*
X220207000Y-95375000D03*
G04 #@! TO.P,J1,11*
X222747000Y-95375000D03*
G04 #@! TO.P,J1,10*
X220207000Y-92835000D03*
G04 #@! TO.P,J1,9*
X222747000Y-92835000D03*
G04 #@! TO.P,J1,8*
G04 #@! TO.N,+12V*
X220207000Y-90295000D03*
G04 #@! TO.P,J1,7*
X222747000Y-90295000D03*
G04 #@! TO.P,J1,6*
G04 #@! TO.N,Net-(J1-Pad5)*
X220207000Y-87755000D03*
G04 #@! TO.P,J1,5*
X222747000Y-87755000D03*
G04 #@! TO.P,J1,4*
G04 #@! TO.N,Net-(J1-Pad3)*
X220207000Y-85215000D03*
G04 #@! TO.P,J1,3*
X222747000Y-85215000D03*
G04 #@! TO.P,J1,2*
G04 #@! TO.N,Net-(J1-Pad1)*
X220207000Y-82675000D03*
D21*
G04 #@! TO.P,J1,1*
X222747000Y-82675000D03*
G04 #@! TD*
D16*
G04 #@! TO.P,R1,1*
G04 #@! TO.N,Net-(C7-Pad1)*
X197739000Y-78613000D03*
D14*
G04 #@! TO.P,R1,2*
G04 #@! TO.N,Net-(R1-Pad2)*
X197739000Y-86487000D03*
G04 #@! TD*
G04 #@! TO.P,R2,2*
G04 #@! TO.N,Net-(C8-Pad2)*
X193427000Y-103297000D03*
D16*
G04 #@! TO.P,R2,1*
G04 #@! TO.N,Net-(R2-Pad1)*
X201047000Y-103297000D03*
G04 #@! TD*
D14*
G04 #@! TO.P,R3,2*
G04 #@! TO.N,Net-(C7-Pad1)*
X203327000Y-81534000D03*
D16*
G04 #@! TO.P,R3,1*
G04 #@! TO.N,+12V*
X203327000Y-73914000D03*
G04 #@! TD*
D14*
G04 #@! TO.P,R4,2*
G04 #@! TO.N,-12V*
X204724000Y-112670000D03*
D16*
G04 #@! TO.P,R4,1*
G04 #@! TO.N,Net-(C8-Pad2)*
X204724000Y-105050000D03*
G04 #@! TD*
G04 #@! TO.P,R5,1*
G04 #@! TO.N,+12V*
X207137000Y-73914000D03*
D14*
G04 #@! TO.P,R5,2*
G04 #@! TO.N,Net-(D7-Pad2)*
X207137000Y-81534000D03*
G04 #@! TD*
D16*
G04 #@! TO.P,R6,1*
G04 #@! TO.N,Net-(D8-Pad1)*
X208153000Y-105029000D03*
D14*
G04 #@! TO.P,R6,2*
G04 #@! TO.N,-12V*
X208153000Y-112649000D03*
G04 #@! TD*
D22*
G04 #@! TO.N,*
X198147000Y-112172000D03*
X183747000Y-73920000D03*
G04 #@! TD*
M02*
