M48
;DRILL file {KiCad (5.0.1-3-g963ef8bb5)} date Thursday, November 15, 2018 at 07:55:00 PM
;FORMAT={-:-/ absolute / inch / decimal}
FMAT,2
INCH,TZ
T1C0.0315
T2C0.0354
T3C0.0394
T4C0.0450
T5C0.0472
T6C0.0472
%
G90
G05
M72
T1
X7.945Y-3.495
X7.945Y-3.5737
X7.785Y-2.81
X7.785Y-2.91
X7.945Y-3.76
X7.945Y-3.8387
X7.27Y-4.34
X7.27Y-4.44
X8.3701Y-3.7579
X8.3701Y-3.9547
X8.195Y-4.135
X8.195Y-4.435
X7.6152Y-4.0668
X7.9152Y-4.0668
X7.42Y-3.405
X7.52Y-3.305
X7.62Y-3.405
X7.4211Y-3.835
X7.5211Y-3.935
X7.6211Y-3.835
X8.155Y-2.91
X8.155Y-3.21
X8.005Y-2.91
X8.005Y-3.21
X8.365Y-3.2736
X8.365Y-3.4705
X7.2469Y-3.2274
X7.2469Y-3.4242
X7.2479Y-3.8169
X7.2479Y-4.0138
X8.06Y-4.1358
X8.06Y-4.4358
X7.785Y-3.095
X7.785Y-3.405
T2
X8.155Y-3.325
X8.155Y-3.425
X8.16Y-3.92
X8.16Y-4.02
T3
X5.2Y-3.61
X5.68Y-3.61
X5.85Y-3.55
X5.85Y-3.67
X8.6696Y-3.2549
X8.6696Y-3.3549
X8.6696Y-3.4549
X8.6696Y-3.5549
X8.6696Y-3.6549
X8.6696Y-3.7549
X8.6696Y-3.8549
X8.6696Y-3.9549
X8.7696Y-3.2549
X8.7696Y-3.3549
X8.7696Y-3.4549
X8.7696Y-3.5549
X8.7696Y-3.6549
X8.7696Y-3.7549
X8.7696Y-3.8549
X8.7696Y-3.9549
T4
X7.6042Y-4.3162
X7.6042Y-4.4162
X7.6042Y-4.5162
X7.431Y-2.8102
X7.431Y-2.9102
X7.431Y-3.0102
T5
X7.2341Y-2.9102
X7.8011Y-4.4162
T6
X5.34Y-3.33
X5.34Y-3.53
X6.751Y-3.8799
X6.751Y-4.1752
X6.0243Y-3.8799
X6.0243Y-4.1752
X6.0243Y-3.3238
X5.54Y-3.71
X6.751Y-3.0354
X6.751Y-3.3307
X6.0243Y-3.0285
X5.54Y-3.91
X5.34Y-3.71
X5.34Y-3.91
X5.54Y-3.33
X5.54Y-3.53
T0
M30
